P3
# PPM Image Output
3 3
255
0
0
0
255
255
255
122
123
122
100
5
5
5
100
5
5
5
100
255
5
5
5
255
5
5
5
255
