P3
# PPM Image Output
75 75
255
0
0
0
0
0
0
0
0
0
0
0
0
0
0
0
0
0
0
0
0
0
0
0
0
0
0
0
0
0
0
0
0
0
0
0
0
0
0
0
0
0
0
0
0
0
0
0
0
0
0
0
0
0
0
0
0
0
0
0
0
0
0
0
0
0
0
0
0
0
0
0
0
0
0
0
0
0
0
0
0
0
0
0
0
0
0
0
0
0
0
0
0
0
255
0
0
220
23
43
220
26
43
220
26
43
219
25
43
219
25
43
219
25
43
219
25
43
219
25
43
219
26
44
219
25
43
219
26
44
215
24
40
0
0
0
0
0
0
0
0
0
0
0
0
0
0
0
0
0
0
0
0
0
0
0
0
0
0
0
0
0
0
0
0
0
0
0
0
0
0
0
0
0
0
0
0
0
0
0
0
0
0
0
0
0
0
0
0
0
0
0
0
0
0
0
0
0
0
0
0
0
0
0
0
0
0
0
0
0
0
0
0
0
0
0
0
0
0
0
0
0
0
0
0
0
0
0
0
0
0
0
0
0
0
0
0
0
0
0
0
0
0
0
0
0
0
0
0
0
0
0
0
0
0
0
0
0
0
0
0
0
0
0
0
0
0
0
0
0
0
0
0
0
0
0
0
0
0
0
0
0
0
0
0
0
0
0
0
0
0
0
0
0
0
0
0
0
0
0
0
0
0
0
0
0
0
221
28
41
219
26
43
219
25
43
219
25
43
219
25
43
219
25
43
219
24
42
220
25
43
215
27
40
225
30
45
0
0
0
0
0
0
220
23
46
218
23
42
220
26
43
220
26
43
219
25
43
219
25
43
219
25
43
219
25
43
220
26
42
0
0
0
0
0
0
0
0
0
0
0
0
0
0
0
0
0
0
0
0
0
0
0
0
0
0
0
0
0
0
0
0
0
0
0
0
0
0
0
0
0
0
0
0
0
0
0
0
0
0
0
0
0
0
0
0
0
0
0
0
0
0
0
0
0
0
0
0
0
0
0
0
0
0
0
0
0
0
0
0
0
0
0
0
0
0
0
0
0
0
0
0
0
0
0
0
0
0
0
0
0
0
0
0
0
0
0
0
0
0
0
0
0
0
0
0
0
0
0
0
0
0
0
0
0
0
0
0
0
0
0
0
0
0
0
0
0
0
0
0
0
0
0
0
0
0
0
0
0
0
0
0
0
221
23
45
219
25
43
219
25
43
219
25
43
220
24
43
0
0
0
0
0
0
0
0
0
0
0
0
0
0
0
221
27
40
218
23
44
220
25
43
219
25
43
220
25
43
219
25
44
219
23
41
213
21
43
0
0
0
0
0
0
0
0
0
0
0
0
216
26
46
219
25
42
219
25
43
219
25
43
219
26
44
0
0
0
0
0
0
0
0
0
0
0
0
0
0
0
0
0
0
0
0
0
0
0
0
0
0
0
0
0
0
0
0
0
0
0
0
0
0
0
0
0
0
0
0
0
0
0
0
0
0
0
0
0
0
0
0
0
0
0
0
0
0
0
0
0
0
0
0
0
0
0
0
0
0
0
0
0
0
0
0
0
0
0
0
0
0
0
0
0
0
0
0
0
0
0
0
0
0
0
0
0
0
0
0
0
0
0
0
0
0
0
0
0
0
0
0
0
0
0
0
0
0
0
0
0
0
0
0
0
0
0
0
0
0
0
0
0
0
219
25
42
219
25
43
219
25
43
219
27
45
0
0
0
0
0
0
223
32
32
219
24
43
220
25
43
219
24
43
216
26
46
0
0
0
0
0
0
0
0
0
0
0
0
0
0
0
0
0
0
0
0
0
0
0
0
0
0
0
216
20
39
218
26
43
219
25
43
219
25
43
220
24
43
0
0
0
0
0
0
255
0
0
219
26
43
219
25
43
219
25
43
223
21
43
0
0
0
0
0
0
0
0
0
0
0
0
0
0
0
0
0
0
0
0
0
0
0
0
0
0
0
0
0
0
0
0
0
0
0
0
0
0
0
0
0
0
0
0
0
0
0
0
0
0
0
0
0
0
0
0
0
0
0
0
0
0
0
0
0
0
0
0
0
0
0
0
0
0
0
0
0
0
0
0
0
0
0
0
0
0
0
0
0
0
0
0
0
0
0
0
0
0
0
0
0
0
0
0
0
0
0
0
0
0
0
0
0
0
0
0
0
0
0
0
0
0
0
220
25
42
219
25
43
219
26
43
0
0
0
0
0
0
223
21
43
220
25
43
218
24
43
255
0
0
0
0
0
0
0
0
0
0
0
0
0
0
223
32
32
217
25
42
220
26
43
219
24
43
219
26
43
0
0
0
0
0
0
0
0
0
216
29
39
0
0
0
0
0
0
0
0
0
0
0
0
0
0
0
222
25
41
219
24
43
220
26
43
0
0
0
0
0
0
220
25
45
219
25
43
219
26
43
216
23
46
0
0
0
0
0
0
0
0
0
0
0
0
0
0
0
0
0
0
0
0
0
0
0
0
0
0
0
0
0
0
0
0
0
0
0
0
0
0
0
0
0
0
0
0
0
0
0
0
0
0
0
0
0
0
0
0
0
0
0
0
0
0
0
0
0
0
0
0
0
0
0
0
0
0
0
0
0
0
0
0
0
0
0
0
0
0
0
0
0
0
0
0
0
0
0
0
0
0
0
0
0
0
0
0
0
0
0
0
0
0
0
218
24
43
219
25
43
219
24
44
0
0
0
0
0
0
218
25
44
219
25
42
255
0
0
0
0
0
0
0
0
0
0
0
0
0
0
219
25
43
219
26
44
0
0
0
0
0
0
219
25
43
0
0
0
0
0
0
255
0
0
0
0
0
0
0
0
0
0
0
220
25
44
219
25
43
0
0
0
0
0
0
0
0
0
0
0
0
0
0
0
0
0
0
0
0
0
219
24
43
219
25
43
213
21
43
0
0
0
220
28
43
219
25
43
219
24
43
255
0
0
0
0
0
0
0
0
0
0
0
0
0
0
0
0
0
0
0
0
0
0
0
0
0
0
0
0
0
0
0
0
0
0
0
0
0
0
0
0
0
0
0
0
0
0
0
0
0
0
0
0
0
0
0
0
0
0
0
0
0
0
0
0
0
0
0
0
0
0
0
0
0
0
0
0
0
0
0
0
0
0
0
0
0
0
0
0
0
0
0
0
0
0
0
0
0
0
0
0
0
191
0
64
219
25
43
219
25
43
255
0
0
0
0
0
220
25
43
219
25
42
0
0
0
0
0
0
0
0
0
218
24
43
219
25
43
0
0
0
0
0
0
219
24
43
219
25
43
0
0
0
0
0
0
219
25
43
219
26
44
219
25
43
0
0
0
0
0
0
0
0
0
219
36
36
219
26
43
219
25
43
0
0
0
0
0
0
0
0
0
219
25
43
220
23
41
219
25
43
221
27
40
0
0
0
0
0
0
213
43
43
218
25
43
223
32
48
0
0
0
220
25
44
219
25
43
219
26
43
0
0
0
0
0
0
0
0
0
0
0
0
0
0
0
0
0
0
0
0
0
0
0
0
0
0
0
0
0
0
0
0
0
0
0
0
0
0
0
0
0
0
0
0
0
0
0
0
0
0
0
0
0
0
0
0
0
0
0
0
0
0
0
0
0
0
0
0
0
0
0
0
0
0
0
0
0
0
0
0
0
0
0
0
0
0
0
0
0
0
0
0
0
219
26
44
219
25
43
218
25
41
0
0
0
219
25
43
219
26
43
0
0
0
0
0
0
218
27
43
219
26
43
219
25
43
0
0
0
219
25
43
221
28
41
219
25
44
219
25
43
219
25
43
0
0
0
0
0
0
219
25
43
221
26
43
0
0
0
0
0
0
0
0
0
0
0
0
219
25
43
218
25
42
219
26
43
219
24
45
0
0
0
255
0
0
219
25
43
219
36
36
0
0
0
219
24
43
0
0
0
219
25
43
0
0
0
0
0
0
216
20
39
218
25
43
0
0
0
0
0
0
219
25
43
219
25
43
0
0
0
0
0
0
0
0
0
0
0
0
0
0
0
0
0
0
0
0
0
0
0
0
0
0
0
0
0
0
0
0
0
0
0
0
0
0
0
0
0
0
0
0
0
0
0
0
0
0
0
0
0
0
0
0
0
0
0
0
0
0
0
0
0
0
0
0
0
0
0
0
0
0
0
0
0
0
0
0
0
0
0
0
0
0
0
219
25
43
219
25
43
0
0
0
0
0
0
219
25
43
255
0
0
0
0
0
217
26
45
219
25
44
219
25
43
0
0
0
0
0
0
0
0
0
220
25
43
219
24
43
0
0
0
0
0
0
219
25
43
0
0
0
0
0
0
219
25
43
220
25
44
0
0
0
220
23
41
221
26
43
219
26
44
0
0
0
0
0
0
220
26
44
219
25
43
0
0
0
0
0
0
219
25
44
219
25
43
218
24
43
0
0
0
220
26
43
0
0
0
218
24
43
219
25
43
0
0
0
0
0
0
220
26
41
219
24
42
0
0
0
219
26
43
219
25
43
216
23
46
0
0
0
0
0
0
0
0
0
0
0
0
0
0
0
0
0
0
0
0
0
0
0
0
0
0
0
0
0
0
0
0
0
0
0
0
0
0
0
0
0
0
0
0
0
0
0
0
0
0
0
0
0
0
0
0
0
0
0
0
0
0
0
0
0
0
0
0
0
0
0
0
0
0
0
0
0
0
219
25
43
219
25
43
0
0
0
219
27
45
219
25
43
0
0
0
0
0
0
0
0
0
219
26
43
0
0
0
219
25
43
219
24
44
0
0
0
0
0
0
255
0
85
219
25
43
0
0
0
0
0
0
219
25
43
219
25
44
0
0
0
220
25
42
218
26
42
218
26
41
221
25
44
255
0
0
219
25
42
220
23
46
0
0
0
218
25
43
219
25
43
0
0
0
219
25
43
0
0
0
0
0
0
219
25
43
218
25
41
0
0
0
0
0
0
219
25
43
223
21
43
219
25
43
0
0
0
0
0
0
0
0
0
219
26
43
0
0
0
219
18
36
219
25
43
220
26
43
0
0
0
0
0
0
0
0
0
0
0
0
0
0
0
0
0
0
0
0
0
0
0
0
0
0
0
0
0
0
0
0
0
0
0
0
0
0
0
0
0
0
0
0
0
0
0
0
0
0
0
0
0
0
0
0
0
0
0
0
0
0
0
0
0
0
0
0
0
0
0
0
219
25
43
220
26
42
0
0
0
220
26
43
230
26
51
0
0
0
219
26
43
219
25
43
218
25
44
0
0
0
0
0
0
223
21
43
219
25
43
0
0
0
0
0
0
0
0
0
219
25
43
219
25
43
0
0
0
0
0
0
0
0
0
0
0
0
0
0
0
0
0
0
0
0
0
0
0
0
0
0
0
0
0
0
0
0
0
0
0
0
0
0
0
0
0
0
0
0
0
221
17
51
219
25
43
230
26
51
219
24
43
255
0
85
0
0
0
220
26
43
219
25
43
0
0
0
220
23
41
0
0
0
219
25
43
0
0
0
0
0
0
218
26
43
213
43
43
0
0
0
219
25
43
219
24
43
0
0
0
0
0
0
0
0
0
0
0
0
0
0
0
0
0
0
0
0
0
0
0
0
0
0
0
0
0
0
0
0
0
0
0
0
0
0
0
0
0
0
0
0
0
0
0
0
0
0
0
0
0
0
0
0
0
0
0
0
0
0
0
0
0
0
219
25
43
219
26
43
0
0
0
218
24
43
0
0
0
0
0
0
220
25
43
204
0
51
218
23
45
219
25
43
0
0
0
0
0
0
0
0
0
219
25
43
219
25
43
0
0
0
0
0
0
0
0
0
0
0
0
0
0
0
218
26
44
219
26
43
219
25
43
219
24
43
221
25
44
222
25
41
255
0
85
225
30
45
219
24
43
221
24
41
219
26
43
219
25
43
220
25
43
223
32
32
0
0
0
0
0
0
0
0
0
0
0
0
0
0
0
0
0
0
219
25
43
219
36
36
0
0
0
0
0
0
0
0
0
219
25
43
219
25
43
213
21
43
0
0
0
219
24
44
215
24
40
0
0
0
219
25
43
219
25
43
0
0
0
0
0
0
0
0
0
0
0
0
0
0
0
0
0
0
0
0
0
0
0
0
0
0
0
0
0
0
0
0
0
0
0
0
0
0
0
0
0
0
0
0
0
0
0
0
0
0
0
0
0
0
0
0
0
0
0
0
219
25
43
218
24
44
0
0
0
219
25
43
0
0
0
0
0
0
219
26
43
219
25
43
0
0
0
213
43
43
219
24
43
0
0
0
0
0
0
0
0
0
219
25
42
0
0
0
0
0
0
0
0
0
218
24
44
219
25
43
216
20
39
0
0
0
0
0
0
0
0
0
0
0
0
219
24
43
218
26
41
219
25
44
218
25
44
221
24
43
217
26
38
0
0
0
0
0
0
0
0
0
0
0
0
219
26
43
220
25
43
220
23
46
0
0
0
0
0
0
220
25
44
219
25
43
0
0
0
0
0
0
0
0
0
219
25
43
219
26
43
0
0
0
219
26
44
220
26
44
0
0
0
217
26
45
218
27
43
0
0
0
219
25
43
218
25
44
0
0
0
0
0
0
0
0
0
0
0
0
0
0
0
0
0
0
0
0
0
0
0
0
0
0
0
0
0
0
0
0
0
0
0
0
0
0
0
0
0
0
0
0
0
0
0
0
0
0
0
0
0
0
219
25
43
219
24
44
0
0
0
220
25
43
0
0
0
0
0
0
0
0
0
0
0
0
218
25
43
219
25
43
218
25
43
219
25
43
219
25
43
219
26
43
0
0
0
0
0
0
255
0
0
219
25
43
221
26
43
0
0
0
0
0
0
220
23
43
219
25
43
219
25
43
219
25
43
219
25
43
219
25
43
219
26
43
218
25
43
219
25
43
219
25
43
219
25
43
219
25
43
219
25
43
219
25
43
219
26
44
191
0
64
0
0
0
0
0
0
220
25
42
219
26
43
0
0
0
0
0
0
0
0
0
0
0
0
219
24
43
219
25
43
230
26
51
219
26
43
255
0
0
219
25
43
0
0
0
0
0
0
217
28
47
217
26
45
0
0
0
219
25
43
220
26
44
0
0
0
0
0
0
0
0
0
0
0
0
0
0
0
0
0
0
0
0
0
0
0
0
0
0
0
0
0
0
0
0
0
0
0
0
0
0
0
0
0
0
0
0
0
0
0
0
219
25
44
218
25
44
0
0
0
219
26
43
0
0
0
0
0
0
218
25
44
217
27
43
0
0
0
0
0
0
219
25
43
220
25
44
0
0
0
0
0
0
0
0
0
0
0
0
219
25
43
223
32
48
0
0
0
225
30
45
220
25
43
219
25
43
219
26
44
219
25
43
230
26
51
0
0
0
0
0
0
0
0
0
219
25
44
219
24
43
0
0
0
219
24
42
0
0
0
0
0
0
219
25
43
191
0
64
219
26
43
219
25
43
219
25
43
220
24
42
0
0
0
0
0
0
219
24
43
217
26
45
0
0
0
191
0
64
219
25
43
255
0
0
0
0
0
221
24
43
0
0
0
0
0
0
0
0
0
219
26
43
0
0
0
221
25
44
225
30
45
255
0
0
219
25
43
223
32
32
0
0
0
0
0
0
0
0
0
0
0
0
0
0
0
0
0
0
0
0
0
0
0
0
0
0
0
0
0
0
0
0
0
0
0
0
0
0
0
0
0
0
219
26
44
219
25
43
0
0
0
220
26
43
0
0
0
213
28
43
220
25
43
216
26
46
219
25
43
219
25
43
0
0
0
0
0
0
219
25
43
191
0
64
0
0
0
218
24
44
220
26
44
0
0
0
223
21
43
219
25
43
219
25
43
218
25
43
0
0
0
0
0
0
0
0
0
218
25
43
0
0
0
218
24
43
220
26
44
219
26
43
0
0
0
219
25
43
0
0
0
219
25
44
191
0
64
0
0
0
221
26
43
219
24
43
219
24
49
191
0
64
220
25
43
219
25
43
218
26
42
0
0
0
0
0
0
219
26
44
0
0
0
0
0
0
219
25
44
220
23
46
0
0
0
0
0
0
0
0
0
218
24
43
219
25
43
219
25
44
0
0
0
219
26
44
0
0
0
221
23
45
219
25
43
0
0
0
0
0
0
0
0
0
0
0
0
0
0
0
0
0
0
0
0
0
0
0
0
0
0
0
0
0
0
0
0
0
0
0
0
0
0
0
191
0
64
219
25
43
0
0
0
219
27
45
209
23
46
0
0
0
219
26
43
0
0
0
0
0
0
0
0
0
219
25
43
221
25
44
0
0
0
0
0
0
0
0
0
219
25
43
255
0
0
0
0
0
219
25
44
219
25
43
219
24
43
218
25
43
219
25
43
219
25
43
219
25
43
0
0
0
0
0
0
0
0
0
0
0
0
227
28
57
219
25
43
220
24
43
0
0
0
219
25
44
219
24
44
0
0
0
0
0
0
0
0
0
0
0
0
0
0
0
219
27
46
219
25
43
219
25
43
219
25
43
219
25
43
218
27
43
0
0
0
220
25
43
216
29
39
0
0
0
219
25
44
216
20
39
0
0
0
220
25
43
219
25
43
255
0
0
222
28
44
213
28
43
0
0
0
219
24
43
0
0
0
219
25
43
218
25
43
0
0
0
0
0
0
0
0
0
0
0
0
0
0
0
0
0
0
0
0
0
0
0
0
0
0
0
0
0
0
0
0
0
0
0
0
219
25
43
220
24
43
0
0
0
219
25
43
0
0
0
0
0
0
219
25
43
0
0
0
0
0
0
0
0
0
220
23
46
220
26
43
0
0
0
0
0
0
219
26
43
0
0
0
215
24
40
219
25
43
219
26
43
0
0
0
0
0
0
0
0
0
0
0
0
0
0
0
0
0
0
0
0
0
0
0
0
219
25
43
221
24
43
0
0
0
216
23
46
218
25
44
219
25
44
220
25
43
216
26
46
219
26
43
255
0
0
0
0
0
219
24
42
219
25
43
219
26
43
0
0
0
0
0
0
0
0
0
227
28
57
219
25
43
219
25
44
0
0
0
213
28
43
220
26
41
0
0
0
230
26
51
219
25
43
219
25
43
218
24
43
0
0
0
225
30
45
220
25
43
0
0
0
0
0
0
218
26
43
0
0
0
219
25
43
217
26
45
0
0
0
0
0
0
0
0
0
0
0
0
0
0
0
0
0
0
0
0
0
0
0
0
0
0
0
0
0
0
218
24
43
219
24
43
0
0
0
219
25
43
0
0
0
0
0
0
0
0
0
218
25
43
219
25
43
219
36
36
0
0
0
219
25
43
0
0
0
255
0
0
219
24
42
0
0
0
219
24
43
219
25
43
219
25
43
219
25
43
219
25
43
219
25
43
219
24
43
219
26
43
219
26
43
218
26
43
255
0
85
0
0
0
230
26
51
219
25
43
220
26
42
0
0
0
219
25
43
0
0
0
216
26
46
0
0
0
219
25
43
218
24
43
0
0
0
0
0
0
0
0
0
0
0
0
0
0
0
0
0
0
0
0
0
227
28
57
219
24
42
219
25
43
219
25
43
0
0
0
191
0
64
220
25
44
0
0
0
219
25
42
0
0
0
219
26
43
219
25
43
219
25
43
219
23
41
0
0
0
0
0
0
219
18
36
219
24
49
215
27
40
219
25
43
0
0
0
0
0
0
0
0
0
0
0
0
0
0
0
0
0
0
0
0
0
0
0
0
0
0
0
0
0
0
219
25
43
255
0
0
219
25
43
255
0
0
255
0
0
220
26
43
0
0
0
0
0
0
220
24
42
219
25
43
219
25
43
223
32
48
0
0
0
219
25
43
0
0
0
219
26
42
219
25
43
219
25
43
219
25
43
219
25
43
218
24
44
221
25
44
0
0
0
0
0
0
0
0
0
0
0
0
0
0
0
220
24
43
0
0
0
217
24
43
220
25
44
0
0
0
221
24
41
0
0
0
219
25
43
0
0
0
219
26
43
218
26
43
0
0
0
0
0
0
220
26
44
219
24
45
218
24
43
219
26
43
219
25
42
219
25
43
219
24
43
219
25
43
219
25
43
219
25
43
191
0
64
255
0
0
219
26
43
0
0
0
0
0
0
219
25
43
0
0
0
0
0
0
0
0
0
0
0
0
218
25
43
0
0
0
219
25
43
0
0
0
220
25
44
220
25
43
0
0
0
0
0
0
0
0
0
0
0
0
0
0
0
0
0
0
0
0
0
0
0
0
218
25
43
218
26
43
0
0
0
219
24
42
0
0
0
0
0
0
227
28
57
219
25
43
204
0
51
0
0
0
0
0
0
0
0
0
0
0
0
219
26
43
0
0
0
219
26
42
219
25
43
0
0
0
0
0
0
0
0
0
0
0
0
0
0
0
0
0
0
0
0
0
209
23
46
219
24
43
218
26
43
0
0
0
219
25
44
0
0
0
219
24
43
218
23
45
219
26
44
219
26
42
0
0
0
219
25
43
0
0
0
220
25
43
219
26
44
0
0
0
213
43
43
0
0
0
0
0
0
0
0
0
0
0
0
0
0
0
0
0
0
0
0
0
0
0
0
0
0
0
219
24
42
219
25
43
255
0
0
230
26
51
221
26
43
0
0
0
219
25
43
0
0
0
0
0
0
0
0
0
220
25
43
219
25
43
0
0
0
0
0
0
219
24
43
0
0
0
219
25
43
0
0
0
0
0
0
0
0
0
0
0
0
0
0
0
0
0
0
0
0
0
0
0
0
219
25
43
0
0
0
220
25
43
0
0
0
0
0
0
0
0
0
0
0
0
220
26
44
220
26
43
219
26
43
0
0
0
0
0
0
219
25
43
0
0
0
219
24
43
219
25
43
0
0
0
0
0
0
0
0
0
223
21
43
220
25
44
219
25
43
219
25
43
218
25
43
0
0
0
0
0
0
0
0
0
218
25
43
218
26
44
220
25
45
220
25
45
220
25
45
220
25
45
220
25
45
220
25
45
220
25
45
220
25
45
220
25
45
220
26
44
219
25
43
0
0
0
0
0
0
218
26
41
219
25
43
219
25
43
219
24
43
219
24
44
0
0
0
0
0
0
0
0
0
0
0
0
219
26
42
219
25
43
0
0
0
221
24
43
255
0
85
0
0
0
0
0
0
220
23
43
219
25
43
220
26
43
219
25
43
0
0
0
0
0
0
218
25
42
0
0
0
219
25
43
218
25
43
0
0
0
0
0
0
0
0
0
0
0
0
0
0
0
0
0
0
219
25
42
219
24
43
0
0
0
219
24
42
0
0
0
219
25
43
219
25
43
219
25
43
219
25
43
219
26
43
204
0
51
0
0
0
218
24
44
255
0
0
215
24
40
219
25
43
218
26
42
219
25
43
219
25
43
219
25
43
219
25
43
219
24
43
0
0
0
0
0
0
0
0
0
0
0
0
218
25
44
219
18
36
218
25
44
219
25
43
219
25
43
219
25
43
219
25
43
219
25
43
219
25
43
219
25
43
219
25
43
219
25
43
219
25
43
219
25
43
219
24
42
0
0
0
220
24
43
0
0
0
0
0
0
0
0
0
220
25
45
220
25
43
219
25
43
219
25
43
219
25
43
219
25
43
219
25
43
220
25
43
219
25
43
0
0
0
218
25
43
0
0
0
221
25
44
217
26
45
0
0
0
219
25
43
219
26
44
0
0
0
191
0
64
0
0
0
220
26
43
0
0
0
219
25
43
0
0
0
0
0
0
0
0
0
0
0
0
0
0
0
0
0
0
219
25
43
0
0
0
219
25
43
0
0
0
219
26
41
218
25
43
218
25
43
0
0
0
0
0
0
0
0
0
0
0
0
0
0
0
218
26
43
0
0
0
219
25
43
219
25
43
219
25
43
219
25
43
219
26
43
0
0
0
0
0
0
0
0
0
0
0
0
223
32
32
219
26
43
220
26
43
0
0
0
0
0
0
0
0
0
0
0
0
219
25
43
220
25
44
220
25
42
218
25
43
220
26
41
219
25
43
220
25
43
0
0
0
219
25
43
220
24
43
0
0
0
0
0
0
0
0
0
217
26
45
219
24
43
220
23
46
0
0
0
0
0
0
0
0
0
219
22
44
219
26
44
219
25
43
219
25
43
219
25
43
219
25
43
220
26
43
0
0
0
219
25
42
0
0
0
0
0
0
0
0
0
219
25
43
0
0
0
222
28
44
219
25
43
0
0
0
220
26
43
0
0
0
219
25
43
220
24
43
0
0
0
0
0
0
0
0
0
0
0
0
221
23
45
219
25
43
0
0
0
219
24
43
0
0
0
0
0
0
0
0
0
0
0
0
218
25
43
218
26
43
218
26
43
0
0
0
219
25
43
0
0
0
219
25
44
219
25
43
219
25
43
0
0
0
0
0
0
0
0
0
0
0
0
0
0
0
221
24
41
219
25
43
219
25
43
0
0
0
0
0
0
213
21
43
219
25
43
0
0
0
0
0
0
217
25
42
219
25
43
219
23
41
220
26
44
230
26
51
220
25
44
219
25
43
0
0
0
219
25
43
0
0
0
0
0
0
0
0
0
219
26
44
0
0
0
0
0
0
218
24
43
219
25
43
218
26
43
0
0
0
0
0
0
0
0
0
0
0
0
219
24
49
219
25
43
219
25
43
219
25
43
255
0
0
219
24
43
255
0
0
0
0
0
218
23
42
219
25
43
219
25
43
213
21
43
0
0
0
0
0
0
0
0
0
219
26
44
227
28
57
219
25
43
0
0
0
0
0
0
0
0
0
0
0
0
219
25
43
219
24
45
223
21
43
191
0
64
0
0
0
0
0
0
0
0
0
0
0
0
0
0
0
219
27
46
0
0
0
255
0
0
225
30
45
223
21
43
219
25
43
0
0
0
0
0
0
0
0
0
0
0
0
0
0
0
219
25
43
219
25
43
219
25
43
220
28
43
0
0
0
0
0
0
219
24
42
218
25
41
0
0
0
222
28
44
0
0
0
220
23
43
219
26
44
219
26
44
219
26
44
219
26
44
219
26
44
219
26
44
219
26
44
219
25
43
0
0
0
222
25
41
0
0
0
0
0
0
219
24
43
0
0
0
0
0
0
0
0
0
219
25
44
219
25
43
219
24
43
220
23
46
0
0
0
0
0
0
0
0
0
0
0
0
219
27
45
219
25
43
0
0
0
218
25
43
0
0
0
219
25
43
225
30
45
0
0
0
0
0
0
0
0
0
0
0
0
0
0
0
219
26
43
0
0
0
219
25
43
255
0
0
0
0
0
0
0
0
0
0
0
219
25
43
0
0
0
219
25
43
0
0
0
0
0
0
0
0
0
0
0
0
0
0
0
0
0
0
0
0
0
0
0
0
219
25
43
0
0
0
219
25
43
218
23
45
0
0
0
0
0
0
221
28
41
219
25
43
219
25
43
219
25
43
218
24
44
0
0
0
0
0
0
0
0
0
219
25
43
221
24
43
0
0
0
221
26
43
217
26
38
0
0
0
218
25
43
219
24
42
219
24
42
219
24
42
219
24
42
219
24
42
219
24
42
219
24
42
219
25
43
0
0
0
0
0
0
219
24
43
0
0
0
0
0
0
219
25
43
219
25
42
0
0
0
0
0
0
219
24
49
219
25
43
219
25
43
219
25
43
218
26
43
0
0
0
0
0
0
0
0
0
219
25
43
225
30
45
223
21
43
0
0
0
0
0
0
0
0
0
0
0
0
0
0
0
0
0
0
0
0
0
0
0
0
215
27
40
0
0
0
219
25
43
219
25
43
0
0
0
0
0
0
221
27
40
219
25
43
0
0
0
219
24
42
0
0
0
0
0
0
0
0
0
0
0
0
0
0
0
0
0
0
0
0
0
0
0
0
222
25
41
225
30
45
219
25
43
0
0
0
219
25
42
219
25
43
219
25
43
219
25
43
219
25
43
255
0
0
0
0
0
0
0
0
221
24
41
219
25
43
221
23
45
0
0
0
213
28
43
219
25
44
0
0
0
217
26
38
0
0
0
219
26
43
218
23
45
218
23
45
218
23
45
218
23
45
218
23
45
216
26
46
219
26
43
0
0
0
0
0
0
0
0
0
219
25
43
0
0
0
0
0
0
219
24
43
219
25
43
0
0
0
0
0
0
0
0
0
220
24
43
219
25
43
219
25
43
219
25
43
219
25
43
220
23
46
220
28
43
219
25
43
0
0
0
219
25
44
0
0
0
0
0
0
0
0
0
0
0
0
0
0
0
0
0
0
0
0
0
0
0
0
218
25
42
255
0
85
219
25
43
0
0
0
0
0
0
219
26
43
219
26
44
223
32
32
204
0
51
0
0
0
0
0
0
0
0
0
0
0
0
0
0
0
0
0
0
0
0
0
218
26
43
0
0
0
220
25
43
219
25
43
219
25
43
219
25
43
219
25
43
219
25
43
221
27
42
0
0
0
0
0
0
0
0
0
219
25
43
219
25
43
221
28
41
0
0
0
227
28
57
219
25
43
0
0
0
0
0
0
219
26
44
0
0
0
219
25
44
0
0
0
0
0
0
0
0
0
0
0
0
0
0
0
218
23
42
0
0
0
0
0
0
218
25
44
0
0
0
213
28
43
219
25
43
0
0
0
0
0
0
219
26
43
219
25
43
220
25
44
0
0
0
0
0
0
0
0
0
219
25
43
219
25
43
219
25
43
219
25
43
219
25
43
219
25
43
0
0
0
219
26
44
0
0
0
0
0
0
0
0
0
0
0
0
0
0
0
0
0
0
0
0
0
0
0
0
219
25
44
0
0
0
219
25
43
0
0
0
0
0
0
219
25
43
0
0
0
219
24
42
0
0
0
0
0
0
0
0
0
0
0
0
0
0
0
0
0
0
0
0
0
0
0
0
219
25
43
0
0
0
219
25
43
219
25
43
219
25
43
218
25
43
219
25
43
0
0
0
0
0
0
0
0
0
215
24
40
219
25
43
219
25
43
222
25
41
0
0
0
255
0
85
219
25
43
223
32
48
0
0
0
220
24
43
0
0
0
0
0
0
218
26
43
219
25
43
219
24
44
219
24
43
219
26
41
221
26
43
220
26
44
0
0
0
0
0
0
217
25
42
225
30
45
0
0
0
220
25
42
219
25
43
0
0
0
0
0
0
219
24
43
219
25
43
220
26
43
0
0
0
0
0
0
0
0
0
219
25
43
219
26
43
219
25
43
219
25
43
219
25
43
219
26
44
0
0
0
217
26
45
0
0
0
0
0
0
0
0
0
0
0
0
0
0
0
0
0
0
0
0
0
218
25
44
0
0
0
219
25
43
216
26
46
0
0
0
219
25
43
0
0
0
219
25
43
0
0
0
0
0
0
0
0
0
0
0
0
0
0
0
0
0
0
0
0
0
0
0
0
223
32
48
220
23
43
219
25
43
219
25
43
219
26
43
255
0
0
0
0
0
0
0
0
0
0
0
219
26
44
219
25
43
219
25
43
214
20
41
0
0
0
0
0
0
219
25
43
219
25
43
0
0
0
0
0
0
219
25
43
0
0
0
220
25
45
219
23
41
219
26
44
220
25
42
218
25
44
219
24
42
221
26
43
218
26
43
0
0
0
0
0
0
0
0
0
219
25
43
0
0
0
0
0
0
219
25
43
219
25
43
0
0
0
0
0
0
220
25
42
219
25
43
219
25
43
220
25
43
0
0
0
219
26
44
0
0
0
220
25
43
219
25
43
219
25
43
219
25
43
0
0
0
219
25
43
0
0
0
0
0
0
0
0
0
0
0
0
0
0
0
0
0
0
0
0
0
0
0
0
255
0
0
220
24
42
219
26
43
255
0
0
219
25
43
0
0
0
219
26
43
0
0
0
0
0
0
0
0
0
0
0
0
0
0
0
0
0
0
0
0
0
219
26
44
0
0
0
219
25
43
219
25
43
220
26
42
220
24
44
0
0
0
219
25
43
223
32
32
219
25
43
219
25
43
219
25
43
215
27
40
0
0
0
0
0
0
219
25
43
219
25
43
0
0
0
0
0
0
218
25
44
220
24
44
0
0
0
219
24
43
222
22
44
218
24
43
219
25
43
220
26
43
219
22
44
219
23
41
219
26
43
0
0
0
220
24
43
0
0
0
219
26
43
218
26
44
0
0
0
213
43
43
219
25
43
219
25
43
0
0
0
0
0
0
219
25
42
219
25
43
219
25
43
219
25
43
219
22
44
218
25
44
219
24
42
0
0
0
219
25
43
219
25
43
0
0
0
218
26
42
0
0
0
0
0
0
0
0
0
0
0
0
0
0
0
0
0
0
0
0
0
0
0
0
220
25
44
230
26
51
219
25
43
221
27
42
219
25
43
0
0
0
221
26
43
0
0
0
0
0
0
0
0
0
0
0
0
0
0
0
0
0
0
0
0
0
219
26
43
0
0
0
219
25
43
0
0
0
0
0
0
216
20
39
0
0
0
219
25
43
219
25
43
219
25
43
219
25
43
221
17
51
0
0
0
219
25
44
219
25
43
219
25
43
216
20
39
0
0
0
213
43
43
219
25
43
0
0
0
0
0
0
219
25
43
0
0
0
219
24
44
220
26
43
220
24
43
216
29
39
218
25
44
219
26
42
0
0
0
219
24
43
0
0
0
204
0
51
219
25
43
0
0
0
0
0
0
218
24
44
219
25
43
218
25
43
213
43
43
0
0
0
219
25
44
219
25
43
219
25
43
0
0
0
219
26
44
0
0
0
255
0
0
0
0
0
219
25
43
221
27
42
221
17
51
0
0
0
0
0
0
0
0
0
0
0
0
0
0
0
0
0
0
0
0
0
0
0
0
219
24
43
0
0
0
219
25
43
220
25
43
220
24
44
0
0
0
0
0
0
0
0
0
0
0
0
0
0
0
0
0
0
0
0
0
0
0
0
0
0
0
219
25
43
0
0
0
219
25
43
0
0
0
0
0
0
0
0
0
220
26
41
255
0
0
219
25
43
216
20
39
230
26
51
0
0
0
219
25
43
0
0
0
0
0
0
0
0
0
218
24
43
0
0
0
219
25
43
219
25
43
0
0
0
0
0
0
219
25
42
0
0
0
216
23
46
219
25
44
219
26
43
225
30
45
220
26
43
219
24
43
0
0
0
219
25
43
0
0
0
0
0
0
219
25
43
219
25
43
0
0
0
219
25
43
0
0
0
0
0
0
255
0
85
219
24
42
0
0
0
220
24
42
219
25
43
0
0
0
219
24
43
0
0
0
217
26
38
0
0
0
219
24
42
219
25
43
0
0
0
230
26
51
0
0
0
0
0
0
0
0
0
0
0
0
0
0
0
0
0
0
0
0
0
218
25
43
0
0
0
219
25
43
220
26
43
220
25
43
221
28
41
0
0
0
0
0
0
0
0
0
0
0
0
0
0
0
0
0
0
0
0
0
0
0
0
220
26
42
0
0
0
219
25
43
0
0
0
217
24
43
0
0
0
219
25
43
0
0
0
219
25
43
0
0
0
219
25
43
0
0
0
204
0
51
0
0
0
0
0
0
0
0
0
0
0
0
221
27
42
219
25
43
220
25
43
0
0
0
218
25
42
220
25
44
220
26
43
219
25
43
219
24
43
219
24
44
219
25
43
219
25
43
219
25
44
218
26
43
219
25
43
222
28
44
0
0
0
220
25
43
219
25
43
219
24
43
0
0
0
0
0
0
0
0
0
0
0
0
219
25
43
0
0
0
219
24
49
220
24
43
0
0
0
220
25
43
204
0
51
219
25
43
219
24
43
230
26
51
219
25
43
0
0
0
220
26
44
0
0
0
0
0
0
0
0
0
0
0
0
0
0
0
0
0
0
0
0
0
219
25
43
0
0
0
219
25
43
219
26
43
217
28
47
219
26
43
0
0
0
0
0
0
0
0
0
0
0
0
0
0
0
0
0
0
0
0
0
0
0
0
219
23
41
219
24
43
219
25
43
219
25
43
219
25
43
218
25
44
218
25
44
0
0
0
219
25
43
0
0
0
219
24
43
219
25
43
0
0
0
0
0
0
0
0
0
0
0
0
0
0
0
219
25
43
219
24
42
223
32
48
0
0
0
0
0
0
0
0
0
0
0
0
0
0
0
0
0
0
0
0
0
0
0
0
0
0
0
0
0
0
0
0
0
0
0
0
0
0
0
0
0
0
218
23
45
218
26
43
219
25
43
0
0
0
0
0
0
0
0
0
0
0
0
219
25
43
220
26
43
0
0
0
0
0
0
218
25
43
219
26
44
218
24
43
223
21
43
218
25
43
219
25
43
219
25
43
0
0
0
218
26
42
0
0
0
0
0
0
0
0
0
0
0
0
0
0
0
0
0
0
0
0
0
219
24
43
0
0
0
219
25
43
219
26
43
0
0
0
219
26
43
0
0
0
0
0
0
0
0
0
0
0
0
0
0
0
0
0
0
0
0
0
0
0
0
222
25
41
218
26
41
219
25
43
219
25
43
219
25
43
219
26
43
220
24
43
255
0
0
255
0
0
219
24
42
217
26
38
219
25
43
0
0
0
0
0
0
0
0
0
0
0
0
223
21
43
0
0
0
0
0
0
0
0
0
0
0
0
0
0
0
0
0
0
0
0
0
0
0
0
0
0
0
0
0
0
0
0
0
0
0
0
0
0
0
0
0
0
0
0
0
0
0
0
0
0
0
0
0
0
0
0
0
219
24
44
0
0
0
0
0
0
0
0
0
0
0
0
219
25
43
219
25
43
0
0
0
255
0
85
219
24
43
219
25
43
0
0
0
0
0
0
220
24
44
219
25
43
219
25
43
0
0
0
220
25
43
0
0
0
0
0
0
0
0
0
0
0
0
0
0
0
0
0
0
0
0
0
218
25
42
0
0
0
219
25
43
219
25
43
0
0
0
219
25
43
0
0
0
0
0
0
0
0
0
0
0
0
0
0
0
0
0
0
0
0
0
0
0
0
213
43
43
219
25
44
219
25
43
219
25
43
0
0
0
255
0
0
219
25
43
219
24
43
0
0
0
220
24
42
255
0
85
219
25
43
0
0
0
0
0
0
0
0
0
0
0
0
219
25
44
0
0
0
0
0
0
0
0
0
0
0
0
0
0
0
0
0
0
219
26
43
0
0
0
219
25
43
0
0
0
220
24
43
219
25
43
219
25
43
0
0
0
0
0
0
0
0
0
0
0
0
0
0
0
0
0
0
0
0
0
255
0
85
0
0
0
0
0
0
0
0
0
220
25
42
219
25
43
0
0
0
219
25
42
255
0
0
213
21
43
221
27
42
0
0
0
218
25
43
219
25
43
219
25
43
0
0
0
219
25
44
0
0
0
0
0
0
0
0
0
0
0
0
0
0
0
0
0
0
0
0
0
220
25
44
0
0
0
219
25
43
219
25
43
0
0
0
219
24
43
0
0
0
0
0
0
0
0
0
0
0
0
0
0
0
0
0
0
0
0
0
0
0
0
213
28
43
220
26
41
219
25
43
219
25
43
255
0
85
219
26
44
0
0
0
219
25
43
0
0
0
219
25
44
220
25
43
219
25
43
0
0
0
0
0
0
0
0
0
0
0
0
219
25
43
0
0
0
0
0
0
0
0
0
0
0
0
0
0
0
0
0
0
218
25
43
0
0
0
221
27
40
218
25
43
0
0
0
218
25
43
219
26
43
0
0
0
0
0
0
0
0
0
0
0
0
0
0
0
0
0
0
0
0
0
218
25
43
0
0
0
0
0
0
0
0
0
218
26
43
219
24
42
255
0
85
218
26
43
0
0
0
219
24
49
219
27
46
0
0
0
219
25
43
219
25
43
219
25
43
0
0
0
220
26
43
0
0
0
0
0
0
255
0
0
0
0
0
255
0
0
0
0
0
0
0
0
219
24
42
0
0
0
219
26
43
219
25
43
223
32
32
219
25
44
0
0
0
0
0
0
219
25
43
0
0
0
219
25
43
219
25
43
0
0
0
0
0
0
220
23
41
218
23
42
219
25
43
219
25
43
220
25
43
0
0
0
218
24
43
0
0
0
218
25
44
216
23
46
218
25
44
219
25
43
0
0
0
0
0
0
0
0
0
0
0
0
219
26
43
0
0
0
0
0
0
0
0
0
0
0
0
0
0
0
0
0
0
220
25
42
219
25
43
0
0
0
219
25
43
0
0
0
219
25
42
218
24
44
0
0
0
0
0
0
0
0
0
0
0
0
0
0
0
0
0
0
0
0
0
219
26
43
0
0
0
0
0
0
0
0
0
219
24
45
0
0
0
220
25
43
219
25
43
0
0
0
219
25
43
0
0
0
219
25
43
219
25
43
219
25
43
219
25
43
0
0
0
219
25
43
0
0
0
219
25
43
219
25
43
0
0
0
218
26
43
219
25
43
0
0
0
219
26
44
0
0
0
219
25
43
219
26
44
220
25
45
219
23
41
0
0
0
0
0
0
219
24
43
0
0
0
219
26
43
219
26
43
0
0
0
0
0
0
218
24
44
217
26
38
219
25
43
221
28
41
230
26
51
219
26
43
0
0
0
218
27
43
219
25
43
219
25
43
0
0
0
219
25
42
0
0
0
0
0
0
0
0
0
0
0
0
218
25
41
0
0
0
0
0
0
0
0
0
0
0
0
0
0
0
0
0
0
0
0
0
0
0
0
0
0
0
0
0
0
0
0
0
0
0
0
0
0
0
0
0
0
0
0
0
0
0
0
0
0
0
0
0
0
0
0
0
0
0
0
219
25
43
0
0
0
0
0
0
0
0
0
227
28
57
0
0
0
0
0
0
219
25
43
220
24
43
219
25
43
219
26
44
0
0
0
218
26
43
0
0
0
219
25
43
0
0
0
218
24
43
0
0
0
219
24
44
219
25
43
0
0
0
219
25
43
219
25
43
0
0
0
219
25
44
0
0
0
219
25
43
218
26
43
220
24
43
216
20
39
0
0
0
0
0
0
219
26
42
0
0
0
218
26
41
218
25
41
0
0
0
0
0
0
219
26
43
0
0
0
219
25
43
255
0
0
0
0
0
0
0
0
220
26
43
219
26
44
220
26
43
223
32
32
220
23
46
220
25
43
0
0
0
0
0
0
0
0
0
0
0
0
213
43
43
0
0
0
0
0
0
0
0
0
0
0
0
204
0
51
217
27
43
0
0
0
219
26
43
219
26
42
0
0
0
219
22
44
220
24
42
218
26
43
0
0
0
230
26
51
0
0
0
0
0
0
0
0
0
0
0
0
0
0
0
219
25
43
0
0
0
0
0
0
0
0
0
0
0
0
227
28
57
0
0
0
219
25
43
218
24
43
0
0
0
0
0
0
0
0
0
255
0
0
217
27
43
218
25
43
0
0
0
219
26
41
0
0
0
220
23
46
213
21
43
0
0
0
218
26
43
220
28
43
0
0
0
219
24
43
0
0
0
219
25
43
219
26
44
220
25
42
0
0
0
217
26
38
0
0
0
0
0
0
0
0
0
0
0
0
0
0
0
0
0
0
0
0
0
218
25
43
0
0
0
219
25
43
0
0
0
220
26
41
0
0
0
0
0
0
220
25
43
219
25
43
0
0
0
216
23
46
220
25
42
0
0
0
0
0
0
0
0
0
0
0
0
0
0
0
0
0
0
219
26
43
222
22
44
223
32
48
219
25
43
218
23
44
0
0
0
219
25
43
219
25
43
0
0
0
219
26
42
0
0
0
219
26
43
0
0
0
220
25
43
215
24
40
219
24
49
219
25
43
0
0
0
0
0
0
219
26
44
0
0
0
0
0
0
0
0
0
0
0
0
220
24
43
0
0
0
218
25
43
0
0
0
219
25
44
0
0
0
219
25
43
218
27
43
219
24
43
218
26
43
0
0
0
0
0
0
0
0
0
0
0
0
0
0
0
0
0
0
0
0
0
0
0
0
0
0
0
219
25
43
0
0
0
219
25
43
215
24
40
219
25
43
0
0
0
219
24
43
0
0
0
0
0
0
0
0
0
0
0
0
0
0
0
0
0
0
0
0
0
219
25
44
0
0
0
219
26
43
221
27
42
219
25
43
0
0
0
219
26
42
0
0
0
219
26
43
0
0
0
0
0
0
219
22
44
0
0
0
0
0
0
0
0
0
0
0
0
0
0
0
0
0
0
219
26
41
219
25
44
0
0
0
218
24
43
218
25
42
0
0
0
218
25
43
219
25
43
0
0
0
219
26
42
0
0
0
219
26
43
217
27
43
219
25
43
220
25
43
0
0
0
219
25
43
0
0
0
0
0
0
219
25
43
0
0
0
0
0
0
0
0
0
0
0
0
219
26
43
0
0
0
219
26
43
218
25
42
0
0
0
0
0
0
219
25
43
219
25
43
219
25
43
230
26
51
218
24
44
0
0
0
0
0
0
0
0
0
0
0
0
0
0
0
0
0
0
0
0
0
0
0
0
218
25
43
0
0
0
219
25
43
0
0
0
219
25
43
0
0
0
219
25
44
0
0
0
0
0
0
0
0
0
0
0
0
0
0
0
0
0
0
0
0
0
230
26
51
0
0
0
220
26
43
219
25
43
219
25
43
219
26
44
0
0
0
219
24
43
219
24
43
0
0
0
217
24
43
0
0
0
0
0
0
0
0
0
0
0
0
204
0
51
0
0
0
0
0
0
0
0
0
220
25
45
0
0
0
0
0
0
0
0
0
0
0
0
0
0
0
0
0
0
0
0
0
0
0
0
0
0
0
0
0
0
0
0
0
0
0
0
0
0
0
0
0
0
218
26
43
0
0
0
0
0
0
218
25
43
0
0
0
0
0
0
0
0
0
0
0
0
219
24
43
0
0
0
220
25
42
213
28
43
219
26
42
219
26
43
219
27
45
219
25
43
219
25
43
0
0
0
219
26
44
0
0
0
0
0
0
0
0
0
0
0
0
0
0
0
0
0
0
0
0
0
0
0
0
219
22
44
219
26
41
219
25
43
0
0
0
219
25
43
0
0
0
219
25
43
0
0
0
0
0
0
0
0
0
0
0
0
0
0
0
0
0
0
0
0
0
0
0
0
220
26
41
204
0
51
219
25
43
219
25
43
219
24
43
219
25
43
218
26
44
219
25
43
219
24
42
219
25
43
0
0
0
0
0
0
0
0
0
0
0
0
204
0
51
0
0
0
0
0
0
0
0
0
0
0
0
0
0
0
0
0
0
0
0
0
0
0
0
0
0
0
0
0
0
0
0
0
0
0
0
0
0
0
0
0
0
0
0
0
0
0
0
0
0
0
0
0
0
0
0
0
0
0
0
0
0
0
219
25
43
0
0
0
0
0
0
0
0
0
0
0
0
221
25
44
220
26
43
219
25
43
218
23
42
0
0
0
0
0
0
219
25
42
219
25
43
219
25
43
0
0
0
218
25
43
0
0
0
0
0
0
0
0
0
0
0
0
0
0
0
0
0
0
0
0
0
216
20
39
0
0
0
219
25
43
218
26
42
0
0
0
219
25
43
215
24
40
220
23
43
0
0
0
0
0
0
0
0
0
0
0
0
0
0
0
0
0
0
0
0
0
0
0
0
219
25
43
0
0
0
219
25
43
219
25
43
219
25
43
0
0
0
0
0
0
230
26
51
219
25
43
219
25
42
0
0
0
0
0
0
0
0
0
0
0
0
0
0
0
0
0
0
0
0
0
0
0
0
219
26
44
0
0
0
218
24
43
219
26
43
0
0
0
219
25
43
219
24
42
0
0
0
219
25
43
218
25
43
219
24
42
191
0
64
219
25
43
219
26
44
219
25
43
0
0
0
0
0
0
0
0
0
219
25
43
0
0
0
0
0
0
0
0
0
0
0
0
0
0
0
219
25
43
0
0
0
223
32
32
221
26
43
0
0
0
219
25
43
219
25
43
219
26
41
219
18
36
0
0
0
0
0
0
0
0
0
0
0
0
0
0
0
0
0
0
0
0
0
0
0
0
220
25
43
0
0
0
219
25
43
255
0
0
0
0
0
220
26
42
219
25
42
0
0
0
218
23
42
0
0
0
0
0
0
0
0
0
0
0
0
0
0
0
0
0
0
0
0
0
216
29
39
0
0
0
219
26
43
219
25
43
219
25
43
219
26
43
0
0
0
219
24
44
221
24
43
0
0
0
218
26
42
219
25
43
219
25
43
220
25
43
0
0
0
0
0
0
0
0
0
0
0
0
219
36
36
220
25
43
219
36
36
218
26
44
0
0
0
219
25
43
219
25
43
0
0
0
219
25
43
0
0
0
0
0
0
218
25
43
219
18
36
219
36
36
219
25
43
0
0
0
0
0
0
0
0
0
219
25
43
219
24
45
219
25
43
219
24
44
220
25
43
218
24
44
218
25
43
219
26
42
255
0
0
0
0
0
218
24
43
219
25
43
219
25
43
0
0
0
219
26
43
0
0
0
0
0
0
0
0
0
0
0
0
0
0
0
0
0
0
0
0
0
0
0
0
219
25
43
0
0
0
219
25
43
0
0
0
0
0
0
0
0
0
219
25
43
0
0
0
219
25
43
0
0
0
0
0
0
0
0
0
0
0
0
0
0
0
0
0
0
0
0
0
0
0
0
219
26
43
0
0
0
219
25
43
219
24
43
218
27
43
0
0
0
0
0
0
219
25
43
219
25
43
216
23
46
214
20
41
0
0
0
220
24
43
220
26
43
216
26
46
0
0
0
0
0
0
0
0
0
219
25
43
0
0
0
227
28
57
0
0
0
213
21
43
0
0
0
0
0
0
255
0
85
0
0
0
0
0
0
220
24
42
0
0
0
219
26
41
219
25
43
0
0
0
0
0
0
0
0
0
219
25
43
219
25
43
0
0
0
218
24
44
219
24
44
219
25
43
217
25
42
0
0
0
219
26
41
220
25
44
223
21
43
219
24
42
220
25
43
0
0
0
219
25
43
0
0
0
0
0
0
0
0
0
0
0
0
0
0
0
0
0
0
0
0
0
0
0
0
216
29
39
217
26
45
220
25
43
0
0
0
0
0
0
0
0
0
219
25
43
255
0
0
220
26
43
0
0
0
0
0
0
0
0
0
0
0
0
0
0
0
0
0
0
0
0
0
0
0
0
219
24
43
0
0
0
220
25
43
219
25
43
0
0
0
219
25
43
0
0
0
219
25
44
219
25
43
220
24
42
219
25
43
219
25
43
219
25
43
219
25
43
220
28
43
0
0
0
0
0
0
0
0
0
0
0
0
0
0
0
0
0
0
0
0
0
0
0
0
0
0
0
0
0
0
0
0
0
0
0
0
0
0
0
0
0
0
0
0
0
0
0
0
0
0
0
0
0
0
0
0
0
0
0
0
218
25
43
219
25
43
219
25
43
219
25
43
219
25
43
220
25
44
218
24
44
219
26
44
209
23
46
213
43
43
0
0
0
219
25
43
0
0
0
219
25
43
0
0
0
0
0
0
0
0
0
0
0
0
0
0
0
0
0
0
0
0
0
0
0
0
219
25
42
0
0
0
219
26
43
221
24
43
0
0
0
0
0
0
0
0
0
219
26
44
219
26
43
0
0
0
219
24
44
0
0
0
0
0
0
0
0
0
0
0
0
0
0
0
0
0
0
0
0
0
0
0
0
218
26
42
0
0
0
219
25
43
204
0
51
219
25
43
219
25
43
219
25
43
219
25
43
219
24
43
0
0
0
0
0
0
218
25
41
218
26
42
0
0
0
0
0
0
0
0
0
0
0
0
0
0
0
0
0
0
0
0
0
0
0
0
0
0
0
0
0
0
0
0
0
0
0
0
0
0
0
0
0
0
0
0
0
0
0
0
0
0
0
0
0
0
0
0
0
0
0
0
0
0
0
219
25
43
217
24
43
0
0
0
0
0
0
219
24
42
219
25
43
223
32
32
220
23
46
230
26
51
219
25
43
219
25
43
220
25
43
0
0
0
219
24
42
0
0
0
0
0
0
0
0
0
0
0
0
0
0
0
0
0
0
0
0
0
0
0
0
218
24
43
0
0
0
219
25
43
0
0
0
0
0
0
0
0
0
0
0
0
0
0
0
219
25
43
0
0
0
219
25
43
0
0
0
0
0
0
0
0
0
0
0
0
0
0
0
0
0
0
0
0
0
0
0
0
220
23
41
255
0
0
221
24
43
219
26
43
218
23
45
219
26
44
216
23
46
219
36
36
221
25
44
219
24
43
219
25
43
219
24
44
0
0
0
217
26
45
218
25
43
0
0
0
0
0
0
218
23
45
218
24
43
219
25
43
219
25
43
219
25
43
219
26
43
219
25
43
219
26
43
219
25
43
219
25
43
219
25
43
220
24
42
221
23
45
0
0
0
0
0
0
0
0
0
0
0
0
220
25
42
215
27
40
220
24
43
219
24
42
218
25
44
217
26
38
219
25
43
255
0
0
220
26
44
219
25
43
219
25
43
0
0
0
220
25
44
0
0
0
0
0
0
0
0
0
0
0
0
0
0
0
0
0
0
0
0
0
0
0
0
219
36
36
255
0
0
218
24
44
218
25
43
0
0
0
0
0
0
0
0
0
0
0
0
0
0
0
219
25
43
219
23
41
213
21
43
223
32
48
0
0
0
0
0
0
0
0
0
0
0
0
0
0
0
0
0
0
0
0
0
0
0
0
219
25
44
0
0
0
219
24
43
219
25
43
219
25
43
219
24
44
221
26
43
218
26
42
204
0
51
0
0
0
219
26
44
0
0
0
220
24
43
0
0
0
220
24
42
219
25
43
219
25
43
217
25
42
0
0
0
0
0
0
219
25
43
219
27
45
219
25
43
219
25
43
219
25
43
218
23
45
0
0
0
0
0
0
219
25
43
219
25
43
219
25
43
219
25
43
227
28
57
219
25
42
219
25
44
219
25
43
219
25
43
219
26
43
214
20
41
0
0
0
219
26
43
219
25
43
219
25
43
191
0
64
217
26
38
213
21
43
0
0
0
0
0
0
0
0
0
0
0
0
0
0
0
0
0
0
0
0
0
0
0
0
219
25
43
0
0
0
219
25
43
230
26
51
0
0
0
0
0
0
0
0
0
0
0
0
0
0
0
223
21
43
219
25
43
0
0
0
220
25
43
0
0
0
0
0
0
0
0
0
0
0
0
0
0
0
0
0
0
0
0
0
0
0
0
0
0
0
220
24
42
0
0
0
219
25
43
219
25
43
219
25
43
221
26
43
191
0
64
0
0
0
0
0
0
0
0
0
219
25
43
0
0
0
219
25
43
227
28
57
219
25
42
220
23
46
219
26
44
0
0
0
0
0
0
219
25
43
218
26
43
219
24
44
219
26
44
219
25
43
217
24
43
0
0
0
0
0
0
219
25
43
220
26
44
219
26
43
0
0
0
223
32
48
219
26
43
219
25
43
220
26
41
220
26
43
220
25
43
219
24
43
219
25
43
219
25
43
219
25
43
221
24
41
0
0
0
220
25
43
0
0
0
0
0
0
0
0
0
0
0
0
0
0
0
0
0
0
0
0
0
0
0
0
255
0
0
223
32
48
214
20
41
219
25
43
0
0
0
0
0
0
0
0
0
0
0
0
0
0
0
0
0
0
0
0
0
219
25
43
219
22
44
223
32
48
214
20
41
0
0
0
0
0
0
0
0
0
0
0
0
0
0
0
0
0
0
0
0
0
0
0
0
220
26
44
215
27
40
0
0
0
219
25
43
219
25
43
219
25
43
227
28
57
0
0
0
219
24
42
219
25
44
220
25
43
219
25
43
219
26
42
219
25
43
0
0
0
0
0
0
0
0
0
219
25
43
0
0
0
219
25
43
219
26
43
219
27
45
219
24
42
219
25
43
221
24
41
222
25
41
219
24
43
0
0
0
218
26
43
0
0
0
219
24
43
213
43
43
219
25
43
221
17
51
0
0
0
230
26
51
0
0
0
223
21
43
219
25
43
219
25
43
219
25
43
0
0
0
219
25
43
0
0
0
0
0
0
0
0
0
0
0
0
0
0
0
0
0
0
0
0
0
0
0
0
0
0
0
218
25
43
0
0
0
219
25
43
215
24
40
0
0
0
0
0
0
0
0
0
0
0
0
0
0
0
0
0
0
0
0
0
219
27
46
219
25
43
0
0
0
219
26
43
0
0
0
0
0
0
0
0
0
0
0
0
0
0
0
0
0
0
0
0
0
0
0
0
0
0
0
220
26
41
213
43
43
213
43
43
219
25
43
219
25
43
219
25
43
219
24
43
0
0
0
218
25
44
0
0
0
0
0
0
255
0
0
0
0
0
218
25
44
219
24
44
223
32
32
0
0
0
219
26
43
219
25
43
220
25
44
219
26
41
219
25
43
219
25
43
220
25
43
219
24
43
0
0
0
0
0
0
219
26
43
219
25
43
0
0
0
218
24
43
219
26
43
219
25
44
191
0
64
0
0
0
216
23
46
219
25
43
219
25
43
218
25
44
0
0
0
220
26
43
0
0
0
0
0
0
0
0
0
0
0
0
0
0
0
0
0
0
0
0
0
0
0
0
0
0
0
215
27
40
255
0
85
218
25
44
219
25
43
0
0
0
0
0
0
0
0
0
0
0
0
0
0
0
0
0
0
0
0
0
0
0
0
0
0
0
219
25
43
220
26
41
0
0
0
219
24
44
0
0
0
0
0
0
0
0
0
0
0
0
0
0
0
0
0
0
219
27
46
221
24
41
0
0
0
220
25
43
255
0
0
255
0
0
219
25
43
219
25
43
0
0
0
219
36
36
218
24
43
219
25
43
0
0
0
219
18
36
220
24
43
0
0
0
218
24
43
0
0
0
219
25
43
255
0
0
219
25
43
219
25
43
219
24
42
0
0
0
219
25
43
219
25
43
0
0
0
218
25
42
0
0
0
219
24
43
0
0
0
218
26
43
219
26
44
0
0
0
0
0
0
0
0
0
219
24
43
227
28
57
219
25
43
219
25
43
0
0
0
218
24
44
0
0
0
0
0
0
219
25
43
0
0
0
0
0
0
0
0
0
0
0
0
0
0
0
0
0
0
0
0
0
219
25
43
0
0
0
219
25
43
230
26
51
0
0
0
0
0
0
0
0
0
0
0
0
0
0
0
0
0
0
0
0
0
0
0
0
0
0
0
255
0
0
219
25
43
0
0
0
219
24
42
255
0
0
0
0
0
0
0
0
0
0
0
0
0
0
214
20
41
219
25
43
218
25
42
0
0
0
0
0
0
219
24
43
216
20
39
0
0
0
219
25
43
219
25
43
0
0
0
0
0
0
219
25
43
219
25
43
220
25
44
219
24
43
219
25
43
219
25
43
218
23
44
191
0
64
227
28
57
219
25
43
220
25
43
216
29
39
0
0
0
219
25
43
217
26
45
220
25
45
0
0
0
219
25
43
218
25
44
218
26
41
219
26
44
219
25
44
219
26
43
219
25
43
230
26
51
220
25
45
219
25
43
221
24
41
0
0
0
219
26
43
0
0
0
0
0
0
0
0
0
219
26
44
0
0
0
0
0
0
0
0
0
0
0
0
0
0
0
0
0
0
219
24
43
0
0
0
220
26
43
219
26
43
0
0
0
0
0
0
0
0
0
0
0
0
0
0
0
0
0
0
0
0
0
0
0
0
0
0
0
0
0
0
0
0
0
219
26
43
220
25
43
0
0
0
219
26
43
0
0
0
0
0
0
0
0
0
221
17
51
219
25
43
217
24
43
0
0
0
0
0
0
219
36
36
0
0
0
220
23
43
219
27
45
0
0
0
220
24
43
219
25
43
218
26
44
219
25
43
220
25
43
0
0
0
0
0
0
0
0
0
0
0
0
219
36
36
219
24
43
219
26
44
219
24
43
219
25
43
218
23
45
218
23
45
219
25
43
223
32
32
219
22
44
219
24
43
0
0
0
216
29
39
220
25
45
213
43
43
0
0
0
218
25
43
219
25
43
219
25
43
219
25
43
191
0
64
0
0
0
219
25
44
0
0
0
0
0
0
219
24
43
0
0
0
216
23
46
0
0
0
0
0
0
0
0
0
0
0
0
0
0
0
223
21
43
213
21
43
230
26
51
219
25
43
0
0
0
0
0
0
0
0
0
0
0
0
0
0
0
0
0
0
0
0
0
0
0
0
0
0
0
0
0
0
0
0
0
0
0
0
0
0
0
219
25
43
219
26
43
0
0
0
220
25
44
0
0
0
0
0
0
219
25
43
219
25
44
0
0
0
0
0
0
0
0
0
219
25
43
218
26
44
0
0
0
191
0
64
219
26
43
0
0
0
255
0
0
219
25
43
219
25
43
219
25
43
218
25
44
0
0
0
219
25
43
219
25
43
219
26
42
220
25
45
219
25
43
219
25
43
0
0
0
0
0
0
0
0
0
219
25
43
219
25
43
219
25
43
218
24
43
227
28
57
0
0
0
0
0
0
255
0
0
219
25
43
219
25
43
219
25
43
220
25
43
0
0
0
217
26
38
218
25
43
0
0
0
0
0
0
219
25
43
219
25
43
219
25
43
219
25
43
219
25
43
0
0
0
0
0
0
0
0
0
0
0
0
219
26
44
0
0
0
219
25
43
215
24
40
0
0
0
0
0
0
0
0
0
0
0
0
0
0
0
0
0
0
0
0
0
0
0
0
0
0
0
0
0
0
0
0
0
0
0
0
0
0
0
0
0
0
219
25
43
221
17
51
213
43
43
220
26
44
0
0
0
220
25
42
221
17
51
0
0
0
0
0
0
218
24
43
255
0
0
0
0
0
219
25
43
0
0
0
0
0
0
219
26
44
221
23
45
0
0
0
219
24
49
219
25
43
219
25
43
219
25
43
219
26
41
0
0
0
255
0
0
220
24
42
219
25
43
220
25
43
218
24
43
0
0
0
0
0
0
220
24
43
219
25
43
219
25
43
219
26
43
219
26
43
220
26
43
219
25
43
219
25
43
219
25
43
220
25
43
0
0
0
0
0
0
219
25
43
216
20
39
0
0
0
218
25
44
219
25
43
220
26
41
0
0
0
0
0
0
0
0
0
219
25
43
219
25
43
0
0
0
0
0
0
218
25
44
0
0
0
219
25
43
220
25
42
0
0
0
0
0
0
0
0
0
0
0
0
0
0
0
0
0
0
0
0
0
0
0
0
0
0
0
0
0
0
0
0
0
0
0
0
0
0
0
0
0
0
0
0
0
221
26
43
219
25
43
0
0
0
215
24
40
221
26
43
0
0
0
219
24
43
220
26
44
219
25
44
204
0
51
0
0
0
0
0
0
219
25
43
221
25
44
0
0
0
0
0
0
255
0
0
219
25
43
216
29
39
0
0
0
0
0
0
220
25
42
219
25
43
219
25
43
219
25
43
219
25
43
0
0
0
219
24
42
220
26
43
0
0
0
0
0
0
219
24
43
230
26
51
220
26
44
219
25
43
219
25
43
219
25
43
219
25
43
219
26
41
0
0
0
0
0
0
220
25
43
219
24
42
0
0
0
0
0
0
219
26
43
219
25
43
0
0
0
0
0
0
0
0
0
0
0
0
0
0
0
221
23
45
219
36
36
0
0
0
219
26
44
0
0
0
219
25
42
219
25
43
0
0
0
0
0
0
0
0
0
0
0
0
0
0
0
0
0
0
0
0
0
0
0
0
0
0
0
0
0
0
0
0
0
0
0
0
0
0
0
0
0
0
0
0
0
0
0
0
0
0
0
218
25
43
219
25
43
0
0
0
217
27
43
221
23
45
0
0
0
0
0
0
0
0
0
0
0
0
0
0
0
219
26
42
219
26
43
219
25
43
0
0
0
219
25
43
0
0
0
0
0
0
0
0
0
218
25
44
220
25
43
0
0
0
0
0
0
0
0
0
219
26
44
219
24
42
219
25
43
219
25
43
219
25
43
219
25
43
219
25
43
219
25
43
219
25
43
219
25
43
218
26
43
230
26
51
0
0
0
0
0
0
225
30
45
219
25
43
220
25
43
0
0
0
0
0
0
0
0
0
219
25
43
0
0
0
219
25
43
218
25
44
0
0
0
0
0
0
0
0
0
0
0
0
0
0
0
0
0
0
219
24
43
0
0
0
219
26
42
219
25
43
0
0
0
0
0
0
0
0
0
0
0
0
0
0
0
0
0
0
0
0
0
0
0
0
0
0
0
0
0
0
0
0
0
0
0
0
0
0
0
0
0
0
0
0
0
0
0
0
0
0
0
0
0
0
0
0
0
219
24
43
219
25
43
0
0
0
216
26
46
218
23
44
0
0
0
0
0
0
0
0
0
220
28
43
220
23
41
216
26
46
219
25
43
0
0
0
219
25
43
0
0
0
219
26
42
0
0
0
0
0
0
0
0
0
221
23
45
219
26
43
219
25
43
223
32
48
0
0
0
0
0
0
0
0
0
0
0
0
0
0
0
0
0
0
0
0
0
0
0
0
0
0
0
0
0
0
218
23
44
219
26
43
218
25
43
0
0
0
0
0
0
0
0
0
219
24
43
219
25
43
0
0
0
218
26
43
0
0
0
213
21
43
219
25
43
204
0
51
0
0
0
0
0
0
0
0
0
0
0
0
219
26
43
0
0
0
217
25
42
219
25
43
0
0
0
0
0
0
0
0
0
0
0
0
0
0
0
0
0
0
0
0
0
0
0
0
0
0
0
0
0
0
0
0
0
0
0
0
0
0
0
0
0
0
0
0
0
0
0
0
0
0
0
0
0
0
0
0
0
0
0
0
0
0
0
219
26
43
219
25
43
0
0
0
223
32
48
218
25
43
0
0
0
225
30
45
219
25
43
0
0
0
0
0
0
219
25
43
219
24
44
0
0
0
0
0
0
220
25
43
219
25
43
225
30
45
220
23
41
0
0
0
0
0
0
0
0
0
0
0
0
213
21
43
218
26
43
219
25
43
219
26
44
219
25
44
218
25
44
218
25
43
219
24
42
219
26
41
0
0
0
0
0
0
0
0
0
0
0
0
216
23
46
220
25
43
230
26
51
0
0
0
219
25
43
219
25
43
0
0
0
0
0
0
0
0
0
218
24
44
219
25
43
216
23
46
0
0
0
0
0
0
219
25
43
0
0
0
218
26
43
219
25
43
255
0
0
0
0
0
0
0
0
0
0
0
0
0
0
0
0
0
0
0
0
0
0
0
0
0
0
0
0
0
0
0
0
0
0
0
0
0
0
0
0
0
0
0
0
0
0
0
0
0
0
0
0
0
0
0
0
0
0
0
0
0
0
0
0
0
0
0
0
219
25
43
219
25
43
255
0
0
0
0
0
219
25
43
0
0
0
0
0
0
0
0
0
0
0
0
219
25
43
218
26
42
0
0
0
0
0
0
219
25
43
218
26
41
0
0
0
219
25
43
220
25
42
0
0
0
0
0
0
219
18
36
0
0
0
0
0
0
0
0
0
0
0
0
0
0
0
0
0
0
0
0
0
0
0
0
0
0
0
0
0
0
0
0
0
0
0
0
219
25
43
255
0
0
0
0
0
219
25
44
0
0
0
255
0
85
219
25
43
0
0
0
0
0
0
0
0
0
227
28
57
220
23
46
0
0
0
221
28
41
219
26
43
0
0
0
219
25
44
219
25
43
0
0
0
0
0
0
0
0
0
0
0
0
0
0
0
0
0
0
0
0
0
0
0
0
0
0
0
0
0
0
0
0
0
0
0
0
0
0
0
0
0
0
0
0
0
0
0
0
0
0
0
0
0
0
0
0
0
0
0
0
0
0
0
0
0
0
0
0
0
0
0
0
0
0
0
219
23
41
219
25
43
217
26
45
0
0
0
219
25
43
220
23
46
0
0
0
0
0
0
219
24
43
0
0
0
0
0
0
216
20
39
219
25
43
0
0
0
0
0
0
220
26
43
219
24
43
0
0
0
0
0
0
219
24
43
0
0
0
219
25
43
218
24
43
219
25
44
219
25
43
0
0
0
219
25
43
219
25
43
218
24
44
219
26
44
219
25
43
0
0
0
219
25
43
220
26
42
218
26
42
219
24
43
221
23
45
0
0
0
219
24
43
219
25
43
0
0
0
0
0
0
0
0
0
0
0
0
219
24
44
213
21
43
0
0
0
220
25
43
219
25
43
0
0
0
0
0
0
0
0
0
0
0
0
0
0
0
0
0
0
0
0
0
0
0
0
0
0
0
0
0
0
0
0
0
0
0
0
0
0
0
0
0
0
0
0
0
0
0
0
0
0
0
0
0
0
0
0
0
0
0
0
0
0
0
0
0
0
0
0
0
0
0
0
0
0
0
0
0
0
0
0
0
223
32
32
219
25
43
219
25
44
0
0
0
223
32
48
219
25
43
0
0
0
0
0
0
0
0
0
0
0
0
219
25
43
219
25
43
0
0
0
0
0
0
219
26
42
219
25
43
0
0
0
219
25
43
0
0
0
0
0
0
219
25
43
214
20
41
0
0
0
0
0
0
0
0
0
0
0
0
219
25
43
0
0
0
0
0
0
219
25
43
0
0
0
222
25
41
219
25
43
219
25
43
219
26
43
219
25
43
0
0
0
217
27
43
219
25
43
0
0
0
0
0
0
217
28
47
219
26
44
0
0
0
223
32
32
219
25
43
220
25
42
0
0
0
0
0
0
0
0
0
0
0
0
0
0
0
0
0
0
0
0
0
0
0
0
0
0
0
0
0
0
0
0
0
0
0
0
0
0
0
0
0
0
0
0
0
0
0
0
0
0
0
0
0
0
0
0
0
0
0
0
0
0
0
0
0
0
0
0
0
0
0
0
0
0
0
0
0
0
0
0
0
0
0
0
0
0
0
0
0
0
220
25
43
219
25
43
215
27
40
0
0
0
219
24
43
219
26
43
0
0
0
0
0
0
220
28
43
218
26
42
0
0
0
0
0
0
0
0
0
219
25
43
219
25
43
0
0
0
0
0
0
0
0
0
219
25
43
220
26
43
219
25
43
0
0
0
0
0
0
0
0
0
219
25
43
219
24
43
219
25
43
227
28
57
0
0
0
255
0
0
0
0
0
0
0
0
0
0
0
219
25
43
0
0
0
0
0
0
0
0
0
223
32
32
219
25
43
255
0
85
0
0
0
220
25
42
219
25
43
219
22
44
0
0
0
0
0
0
0
0
0
0
0
0
0
0
0
0
0
0
0
0
0
0
0
0
0
0
0
0
0
0
0
0
0
0
0
0
0
0
0
0
0
0
0
0
0
0
0
0
0
0
0
0
0
0
0
0
0
0
0
0
0
0
0
0
0
0
0
0
0
0
0
0
0
0
0
0
0
0
0
0
0
0
0
0
0
0
0
0
0
0
0
0
0
0
0
0
220
28
43
219
25
43
220
25
43
0
0
0
0
0
0
220
26
43
219
26
44
0
0
0
0
0
0
0
0
0
0
0
0
0
0
0
219
25
43
255
0
85
0
0
0
0
0
0
0
0
0
219
25
43
0
0
0
0
0
0
0
0
0
0
0
0
0
0
0
219
25
43
0
0
0
219
25
43
219
25
44
0
0
0
0
0
0
219
25
43
219
24
43
220
26
44
0
0
0
0
0
0
217
26
38
219
25
43
223
32
48
0
0
0
222
28
44
219
25
43
220
25
44
0
0
0
0
0
0
0
0
0
0
0
0
0
0
0
0
0
0
0
0
0
0
0
0
0
0
0
0
0
0
0
0
0
0
0
0
0
0
0
0
0
0
0
0
0
0
0
0
0
0
0
0
0
0
0
0
0
0
0
0
0
0
0
0
0
0
0
0
0
0
0
0
0
0
0
0
0
0
0
0
0
0
0
0
0
0
0
0
0
0
0
0
0
0
0
0
0
0
0
0
0
0
0
0
0
0
0
0
220
25
43
219
25
43
218
26
43
0
0
0
0
0
0
219
26
44
219
25
43
221
26
43
0
0
0
0
0
0
0
0
0
0
0
0
0
0
0
0
0
0
219
27
45
219
25
43
220
25
43
218
26
43
219
25
43
0
0
0
0
0
0
219
25
43
219
25
43
0
0
0
220
26
43
219
25
43
0
0
0
0
0
0
0
0
0
0
0
0
219
25
43
219
26
42
255
0
0
0
0
0
221
26
43
219
25
43
219
25
43
230
26
51
0
0
0
0
0
0
0
0
0
0
0
0
0
0
0
0
0
0
0
0
0
0
0
0
0
0
0
0
0
0
0
0
0
0
0
0
0
0
0
0
0
0
0
0
0
0
0
0
0
0
0
0
0
0
0
0
0
0
0
0
0
0
0
0
0
0
0
0
0
0
0
0
0
0
0
0
0
0
0
0
0
0
0
0
0
0
0
0
0
0
0
0
0
0
0
0
0
0
0
0
0
0
0
0
0
0
0
0
0
0
0
0
0
0
0
0
0
218
25
43
219
25
43
219
26
43
223
32
32
0
0
0
0
0
0
218
25
42
219
25
43
218
26
43
255
0
0
0
0
0
0
0
0
0
0
0
0
0
0
0
0
0
0
0
0
0
0
0
0
0
0
0
0
0
0
0
0
0
0
0
0
0
0
0
0
0
0
0
0
216
26
46
219
25
43
218
25
43
223
21
43
0
0
0
0
0
0
220
24
43
219
25
43
219
25
43
221
26
43
0
0
0
0
0
0
0
0
0
0
0
0
0
0
0
0
0
0
0
0
0
0
0
0
0
0
0
0
0
0
0
0
0
0
0
0
0
0
0
0
0
0
0
0
0
0
0
0
0
0
0
0
0
0
0
0
0
0
0
0
0
0
0
0
0
0
0
0
0
0
0
0
0
0
0
0
0
0
0
0
0
0
0
0
0
0
0
0
0
0
0
0
0
0
0
0
0
0
0
0
0
0
0
0
0
0
0
0
0
0
0
0
0
0
0
0
0
0
0
0
0
0
0
0
0
0
0
0
0
220
24
43
219
25
43
219
25
43
220
26
43
255
0
0
0
0
0
0
0
0
255
0
0
220
25
44
219
24
43
219
25
43
218
25
44
219
24
43
219
26
43
220
25
43
220
25
43
219
26
44
219
25
43
219
24
43
219
26
43
218
24
43
218
23
45
0
0
0
0
0
0
0
0
0
220
26
43
219
25
43
219
25
43
218
25
43
230
26
51
0
0
0
0
0
0
0
0
0
0
0
0
0
0
0
0
0
0
0
0
0
0
0
0
0
0
0
0
0
0
0
0
0
0
0
0
0
0
0
0
0
0
0
0
0
0
0
0
0
0
0
0
0
0
0
0
0
0
0
0
0
0
0
0
0
0
0
0
0
0
0
0
0
0
0
0
0
0
0
0
0
0
0
0
0
0
0
0
0
0
0
0
0
0
0
0
0
0
0
0
0
0
0
0
0
0
0
0
0
0
0
0
0
0
0
0
0
0
0
0
0
0
0
0
0
0
0
0
0
0
0
0
0
0
0
0
0
0
0
0
0
255
0
0
219
25
43
219
25
43
219
25
43
220
25
43
219
25
43
219
18
36
0
0
0
0
0
0
0
0
0
0
0
0
0
0
0
0
0
0
0
0
0
0
0
0
0
0
0
0
0
0
0
0
0
0
0
0
221
24
43
219
24
43
219
25
43
219
25
43
220
25
43
217
24
43
0
0
0
0
0
0
0
0
0
0
0
0
0
0
0
0
0
0
0
0
0
0
0
0
0
0
0
0
0
0
0
0
0
0
0
0
0
0
0
0
0
0
0
0
0
0
0
0
0
0
0
0
0
0
0
0
0
0
0
0
0
0
0
0
0
0
0
0
0
0
0
0
0
0
0
0
0
0
0
0
0
0
0
0
0
0
0
0
0
0
0
0
0
0
0
0
0
0
0
0
0
0
0
0
0
0
0
0
0
0
0
0
0
0
0
0
0
0
0
0
0
0
0
0
0
0
0
0
0
0
0
0
0
0
0
0
0
0
0
0
0
0
0
0
0
0
0
0
0
0
0
0
0
0
0
0
0
0
0
0
0
0
216
26
46
219
26
43
219
25
43
219
25
43
219
25
43
219
25
43
219
25
43
219
25
43
219
25
43
219
25
43
219
25
43
219
25
43
219
25
43
219
25
43
219
25
43
219
25
44
218
26
42
0
0
0
0
0
0
0
0
0
0
0
0
0
0
0
0
0
0
0
0
0
0
0
0
0
0
0
0
0
0
0
0
0
0
0
0
0
0
0
0
0
0
0
0
0
0
0
0
0
0
0
0
0
0
0
0
0
0
0
0
0
0
0
0
0
0
0
0
0
0
0
0
0
0
0
0
0
0
0
0
0
0
0
0
0
0
0
