P3
# PPM Image Output
60 90
255
0
0
0
0
0
0
0
0
0
0
0
0
0
0
0
0
0
0
0
0
0
0
0
0
0
0
0
0
0
0
0
0
0
0
0
0
0
0
0
0
0
0
0
0
0
0
0
0
0
0
0
0
0
0
0
0
0
0
0
0
0
0
0
0
0
0
0
0
0
0
0
0
0
0
0
0
0
0
219
26
44
0
0
0
219
25
43
0
0
0
219
25
43
0
0
0
219
26
44
0
0
0
220
23
43
0
0
0
0
0
0
0
0
0
0
0
0
0
0
0
0
0
0
0
0
0
0
0
0
0
0
0
0
0
0
0
0
0
0
0
0
0
0
0
0
0
0
0
0
0
0
0
0
0
0
0
0
0
0
0
0
0
0
0
0
0
0
0
0
0
0
0
0
0
0
0
0
0
0
0
0
0
0
0
0
0
0
0
0
0
0
0
0
0
0
0
0
0
0
0
0
0
0
0
0
0
0
0
0
0
0
0
0
0
0
0
0
0
0
0
0
0
0
0
0
0
0
0
0
0
0
0
0
0
0
0
0
0
0
0
0
0
0
0
0
0
0
0
0
224
20
20
0
0
0
218
24
24
0
0
0
218
24
24
0
0
0
146
16
16
0
0
0
217
26
26
0
0
0
218
25
25
0
0
0
218
24
24
0
0
0
151
12
12
0
0
0
0
0
0
0
0
0
0
0
0
0
0
0
0
0
0
0
0
0
0
0
0
0
0
0
0
0
0
0
0
0
0
0
0
0
0
0
0
0
0
0
0
0
0
0
0
0
0
0
0
0
0
0
0
0
0
0
0
0
0
0
0
0
0
0
0
0
0
0
0
0
0
0
0
0
0
0
0
0
0
0
0
0
0
0
0
0
0
0
0
0
0
0
0
0
0
0
0
0
0
0
0
0
0
0
0
0
0
0
0
0
0
0
0
0
0
0
0
0
0
0
36
3
3
0
0
0
218
24
24
0
0
0
182
19
19
0
0
0
74
9
9
0
0
0
107
11
11
0
0
0
110
12
12
0
0
0
109
12
12
0
0
0
70
6
6
0
0
0
109
12
12
0
0
0
217
24
24
0
0
0
218
24
24
0
0
0
0
0
0
0
0
0
0
0
0
0
0
0
0
0
0
0
0
0
0
0
0
0
0
0
0
0
0
0
0
0
0
0
0
0
0
0
0
0
0
0
0
0
0
0
0
0
0
0
0
0
0
0
0
0
0
0
0
0
0
0
0
0
0
0
0
0
0
0
0
0
0
0
0
0
0
0
0
0
0
0
0
0
0
0
0
0
0
0
0
0
0
0
0
0
0
0
0
0
0
0
0
0
0
0
0
0
0
0
0
0
0
209
23
46
0
0
0
219
25
43
0
0
0
0
0
0
0
0
0
255
0
0
0
0
0
219
25
43
0
0
0
218
24
43
0
0
0
219
26
44
0
0
0
219
25
43
0
0
0
219
26
44
0
0
0
0
0
0
0
0
0
255
0
0
0
0
0
219
25
43
0
0
0
0
0
0
0
0
0
0
0
0
0
0
0
0
0
0
0
0
0
0
0
0
0
0
0
0
0
0
0
0
0
0
0
0
0
0
0
0
0
0
0
0
0
0
0
0
0
0
0
0
0
0
0
0
0
0
0
0
0
0
0
0
0
0
0
0
0
0
0
0
0
0
0
0
0
0
0
0
0
0
0
0
0
0
0
0
0
0
0
0
0
0
0
0
0
0
0
0
0
0
0
0
0
0
0
0
180
18
18
0
0
0
222
24
24
0
0
0
73
8
8
0
0
0
218
25
25
0
0
0
109
12
12
0
0
0
0
0
0
0
0
0
0
0
0
0
0
0
0
0
0
0
0
0
0
0
0
0
0
0
109
12
12
0
0
0
218
28
28
0
0
0
85
0
0
0
0
0
218
24
24
0
0
0
108
12
12
0
0
0
0
0
0
0
0
0
0
0
0
0
0
0
0
0
0
0
0
0
0
0
0
0
0
0
0
0
0
0
0
0
0
0
0
0
0
0
0
0
0
0
0
0
0
0
0
0
0
0
0
0
0
0
0
0
0
0
0
0
0
0
0
0
0
0
0
0
0
0
0
0
0
0
0
0
0
0
0
0
0
0
0
0
0
0
0
0
0
0
0
0
108
10
10
0
0
0
218
24
24
0
0
0
121
4
4
0
0
0
181
19
19
0
0
0
0
0
0
0
0
0
110
13
13
0
0
0
217
24
24
0
0
0
218
24
24
0
0
0
0
0
0
0
0
0
223
21
21
0
0
0
0
0
0
0
0
0
0
0
0
0
0
0
220
24
24
0
0
0
63
0
0
0
0
0
218
24
24
0
0
0
69
7
7
0
0
0
0
0
0
0
0
0
0
0
0
0
0
0
0
0
0
0
0
0
0
0
0
0
0
0
0
0
0
0
0
0
0
0
0
0
0
0
0
0
0
0
0
0
0
0
0
0
0
0
0
0
0
0
0
0
0
0
0
0
0
0
0
0
0
0
0
0
0
0
0
0
0
0
0
0
0
0
0
0
0
0
0
255
0
0
0
0
0
219
24
44
0
0
0
216
20
39
0
0
0
255
0
0
0
0
0
0
0
0
0
0
0
219
25
43
0
0
0
0
0
0
0
0
0
0
0
0
0
0
0
220
26
44
0
0
0
0
0
0
0
0
0
255
0
0
0
0
0
0
0
0
0
0
0
0
0
0
0
0
0
219
24
43
0
0
0
0
0
0
0
0
0
219
25
43
0
0
0
0
0
0
0
0
0
0
0
0
0
0
0
0
0
0
0
0
0
0
0
0
0
0
0
0
0
0
0
0
0
0
0
0
0
0
0
0
0
0
0
0
0
0
0
0
0
0
0
0
0
0
0
0
0
0
0
0
0
0
0
0
0
0
0
0
0
0
0
0
0
0
0
0
0
0
0
0
0
0
0
0
104
8
8
0
0
0
230
15
15
0
0
0
181
20
20
0
0
0
35
4
4
0
0
0
180
26
26
0
0
0
0
0
0
0
0
0
72
8
8
0
0
0
218
24
24
0
0
0
218
23
23
0
0
0
0
0
0
0
0
0
218
24
24
0
0
0
0
0
0
0
0
0
218
24
24
0
0
0
110
13
13
0
0
0
108
12
12
0
0
0
110
15
15
0
0
0
218
24
24
0
0
0
31
0
0
0
0
0
0
0
0
0
0
0
0
0
0
0
0
0
0
0
0
0
0
0
0
0
0
0
0
0
0
0
0
0
0
0
0
0
0
0
0
0
0
0
0
0
0
0
0
0
0
0
0
0
0
0
0
0
0
0
0
0
0
0
0
0
0
0
0
0
0
0
0
0
0
0
0
0
218
24
24
0
0
0
36
4
4
0
0
0
111
12
12
0
0
0
146
16
16
0
0
0
72
8
8
0
0
0
110
11
11
0
0
0
218
24
24
0
0
0
219
23
23
0
0
0
146
17
17
0
0
0
0
0
0
0
0
0
145
16
16
0
0
0
0
0
0
0
0
0
224
20
20
0
0
0
218
23
23
0
0
0
108
11
11
0
0
0
145
15
15
0
0
0
36
3
3
0
0
0
218
24
24
0
0
0
0
0
0
0
0
0
0
0
0
0
0
0
0
0
0
0
0
0
0
0
0
0
0
0
0
0
0
0
0
0
0
0
0
0
0
0
0
0
0
0
0
0
0
0
0
0
0
0
0
0
0
0
0
0
0
0
0
0
0
0
0
0
0
0
0
0
0
0
0
219
25
43
0
0
0
0
0
0
0
0
0
0
0
0
0
0
0
219
25
43
0
0
0
218
25
44
0
0
0
219
25
43
0
0
0
222
22
44
0
0
0
0
0
0
0
0
0
217
24
43
0
0
0
225
30
45
0
0
0
219
25
43
0
0
0
219
25
43
0
0
0
0
0
0
0
0
0
220
24
42
0
0
0
220
26
44
0
0
0
219
27
46
0
0
0
216
29
39
0
0
0
0
0
0
0
0
0
219
25
43
0
0
0
0
0
0
0
0
0
0
0
0
0
0
0
0
0
0
0
0
0
0
0
0
0
0
0
0
0
0
0
0
0
0
0
0
0
0
0
0
0
0
0
0
0
0
0
0
0
0
0
0
0
0
0
0
0
0
0
0
0
0
0
0
0
0
218
24
24
0
0
0
73
6
6
0
0
0
121
4
4
0
0
0
218
24
24
0
0
0
145
20
20
0
0
0
0
0
0
0
0
0
77
3
3
0
0
0
218
24
24
0
0
0
177
16
16
0
0
0
109
12
12
0
0
0
182
20
20
0
0
0
0
0
0
0
0
0
78
4
4
0
0
0
182
19
19
0
0
0
159
8
8
0
0
0
146
23
23
0
0
0
146
17
17
0
0
0
183
23
23
0
0
0
73
8
8
0
0
0
144
14
14
0
0
0
0
0
0
0
0
0
0
0
0
0
0
0
0
0
0
0
0
0
0
0
0
0
0
0
0
0
0
0
0
0
0
0
0
0
0
0
0
0
0
0
0
0
0
0
0
0
0
0
0
0
0
0
0
0
0
0
0
0
0
0
224
20
20
0
0
0
219
26
26
0
0
0
0
0
0
0
0
0
181
21
21
0
0
0
218
24
24
0
0
0
0
0
0
0
0
0
187
15
15
0
0
0
218
24
24
0
0
0
110
12
12
0
0
0
109
13
13
0
0
0
110
12
12
0
0
0
0
0
0
0
0
0
181
20
20
0
0
0
76
8
8
0
0
0
218
24
24
0
0
0
146
13
13
0
0
0
145
16
16
0
0
0
84
0
0
0
0
0
182
19
19
0
0
0
218
24
24
0
0
0
0
0
0
0
0
0
0
0
0
0
0
0
0
0
0
0
0
0
0
0
0
0
0
0
0
0
0
0
0
0
0
0
0
0
0
0
0
0
0
0
0
0
0
0
0
0
0
0
0
0
0
0
0
0
0
0
0
219
25
43
0
0
0
220
26
43
0
0
0
0
0
0
0
0
0
218
25
44
0
0
0
0
0
0
0
0
0
0
0
0
0
0
0
219
26
44
0
0
0
0
0
0
0
0
0
0
0
0
0
0
0
0
0
0
0
0
0
0
0
0
0
0
0
0
0
0
0
0
0
0
0
0
0
0
0
221
17
51
0
0
0
218
23
45
0
0
0
0
0
0
0
0
0
216
20
39
0
0
0
0
0
0
0
0
0
0
0
0
0
0
0
213
43
43
0
0
0
219
25
43
0
0
0
0
0
0
0
0
0
0
0
0
0
0
0
0
0
0
0
0
0
0
0
0
0
0
0
0
0
0
0
0
0
0
0
0
0
0
0
0
0
0
0
0
0
0
0
0
0
0
0
0
0
0
218
24
24
0
0
0
184
21
21
0
0
0
73
8
8
0
0
0
181
19
19
0
0
0
0
0
0
0
0
0
218
25
25
0
0
0
0
0
0
0
0
0
42
0
0
0
0
0
109
12
12
0
0
0
218
24
24
0
0
0
221
26
26
0
0
0
219
24
24
0
0
0
216
23
23
0
0
0
111
14
14
0
0
0
109
13
13
0
0
0
36
4
4
0
0
0
218
24
24
0
0
0
0
0
0
0
0
0
218
24
24
0
0
0
0
0
0
0
0
0
35
3
3
0
0
0
230
16
16
0
0
0
0
0
0
0
0
0
0
0
0
0
0
0
0
0
0
0
0
0
0
0
0
0
0
0
0
0
0
0
0
0
0
0
0
0
0
0
0
0
0
0
0
0
0
0
0
0
0
0
181
19
19
0
0
0
182
20
20
0
0
0
218
24
24
0
0
0
35
7
7
0
0
0
0
0
0
0
0
0
146
18
18
0
0
0
0
0
0
0
0
0
145
16
16
0
0
0
109
12
12
0
0
0
0
0
0
0
0
0
109
12
12
0
0
0
109
12
12
0
0
0
0
0
0
0
0
0
109
12
12
0
0
0
109
12
12
0
0
0
0
0
0
0
0
0
218
24
24
0
0
0
0
0
0
0
0
0
181
20
20
0
0
0
182
20
20
0
0
0
217
24
24
0
0
0
218
24
24
0
0
0
0
0
0
0
0
0
0
0
0
0
0
0
0
0
0
0
0
0
0
0
0
0
0
0
0
0
0
0
0
0
0
0
0
0
0
0
0
0
0
0
0
0
0
0
0
219
26
43
0
0
0
219
26
43
0
0
0
0
0
0
0
0
0
219
25
43
0
0
0
219
25
43
0
0
0
219
24
43
0
0
0
0
0
0
0
0
0
219
25
43
0
0
0
0
0
0
0
0
0
219
26
43
0
0
0
219
25
43
0
0
0
219
25
43
0
0
0
219
25
43
0
0
0
218
26
44
0
0
0
0
0
0
0
0
0
219
24
43
0
0
0
0
0
0
0
0
0
0
0
0
0
0
0
219
25
43
0
0
0
0
0
0
0
0
0
0
0
0
0
0
0
217
27
43
0
0
0
219
25
43
0
0
0
0
0
0
0
0
0
0
0
0
0
0
0
0
0
0
0
0
0
0
0
0
0
0
0
0
0
0
0
0
0
0
0
0
0
0
0
0
0
0
218
24
24
0
0
0
182
20
20
0
0
0
0
0
0
0
0
0
68
0
0
0
0
0
216
30
30
0
0
0
218
24
24
0
0
0
85
0
0
0
0
0
145
15
15
0
0
0
109
12
12
0
0
0
218
24
24
0
0
0
219
27
27
0
0
0
218
24
24
0
0
0
182
17
17
0
0
0
218
24
24
0
0
0
218
24
24
0
0
0
36
4
4
0
0
0
219
23
23
0
0
0
0
0
0
0
0
0
182
20
20
0
0
0
186
22
22
0
0
0
109
12
12
0
0
0
0
0
0
0
0
0
35
3
3
0
0
0
146
16
16
0
0
0
0
0
0
0
0
0
0
0
0
0
0
0
0
0
0
0
0
0
0
0
0
0
0
0
0
0
0
0
0
0
0
0
0
0
0
0
218
23
23
0
0
0
182
20
20
0
0
0
219
24
24
0
0
0
73
8
8
0
0
0
218
24
24
0
0
0
0
0
0
0
0
0
218
25
25
0
0
0
110
11
11
0
0
0
218
24
24
0
0
0
218
24
24
0
0
0
109
12
12
0
0
0
182
19
19
0
0
0
73
9
9
0
0
0
145
16
16
0
0
0
218
23
23
0
0
0
218
24
24
0
0
0
71
8
8
0
0
0
182
20
20
0
0
0
145
16
16
0
0
0
35
7
7
0
0
0
0
0
0
0
0
0
181
20
20
0
0
0
220
25
25
0
0
0
218
24
24
0
0
0
0
0
0
0
0
0
0
0
0
0
0
0
0
0
0
0
0
0
0
0
0
0
0
0
0
0
0
0
0
0
0
0
0
219
25
43
0
0
0
220
26
43
0
0
0
219
25
43
0
0
0
219
25
43
0
0
0
0
0
0
0
0
0
191
0
64
0
0
0
219
25
43
0
0
0
223
21
43
0
0
0
219
25
43
0
0
0
0
0
0
0
0
0
219
24
43
0
0
0
220
26
44
0
0
0
213
21
43
0
0
0
219
25
44
0
0
0
0
0
0
0
0
0
219
24
49
0
0
0
219
25
43
0
0
0
0
0
0
0
0
0
220
23
43
0
0
0
219
25
44
0
0
0
0
0
0
0
0
0
218
24
43
0
0
0
0
0
0
0
0
0
0
0
0
0
0
0
220
24
43
0
0
0
0
0
0
0
0
0
0
0
0
0
0
0
0
0
0
0
0
0
0
0
0
0
0
0
0
0
0
176
15
15
0
0
0
73
9
9
0
0
0
73
6
6
0
0
0
0
0
0
0
0
0
218
24
24
0
0
0
151
12
12
0
0
0
215
20
20
0
0
0
194
12
12
0
0
0
218
24
24
0
0
0
218
24
24
0
0
0
0
0
0
0
0
0
104
9
9
0
0
0
72
8
8
0
0
0
230
16
16
0
0
0
0
0
0
0
0
0
104
4
4
0
0
0
109
13
13
0
0
0
218
24
24
0
0
0
36
4
4
0
0
0
150
13
13
0
0
0
218
24
24
0
0
0
186
19
19
0
0
0
151
13
13
0
0
0
0
0
0
0
0
0
73
8
8
0
0
0
33
0
0
0
0
0
0
0
0
0
0
0
0
0
0
0
0
0
0
0
0
0
0
0
0
0
0
0
0
0
218
24
24
0
0
0
219
21
21
0
0
0
72
7
7
0
0
0
0
0
0
0
0
0
218
23
23
0
0
0
0
0
0
0
0
0
73
8
8
0
0
0
218
24
24
0
0
0
0
0
0
0
0
0
109
11
11
0
0
0
109
11
11
0
0
0
224
20
20
0
0
0
143
15
15
0
0
0
218
25
25
0
0
0
224
19
19
0
0
0
109
12
12
0
0
0
218
25
25
0
0
0
108
12
12
0
0
0
218
24
24
0
0
0
145
16
16
0
0
0
0
0
0
0
0
0
218
24
24
0
0
0
0
0
0
0
0
0
0
0
0
0
0
0
144
13
13
0
0
0
181
20
20
0
0
0
0
0
0
0
0
0
0
0
0
0
0
0
0
0
0
0
0
0
0
0
0
255
0
0
0
0
0
0
0
0
0
0
0
0
0
0
0
0
0
219
25
43
0
0
0
0
0
0
0
0
0
0
0
0
0
0
0
227
28
57
0
0
0
219
25
43
0
0
0
0
0
0
0
0
0
0
0
0
0
0
0
0
0
0
0
0
0
219
25
44
0
0
0
219
24
43
0
0
0
255
0
0
0
0
0
0
0
0
0
0
0
0
0
0
0
0
0
0
0
0
0
0
0
0
0
0
0
0
0
0
0
0
0
0
0
219
25
43
0
0
0
219
26
42
0
0
0
220
26
41
0
0
0
220
25
43
0
0
0
219
25
43
0
0
0
0
0
0
0
0
0
0
0
0
0
0
0
0
0
0
0
0
0
0
0
0
0
0
0
0
0
0
0
0
0
0
0
0
0
0
0
0
0
0
143
14
14
0
0
0
36
4
4
0
0
0
0
0
0
0
0
0
218
28
28
0
0
0
218
24
24
0
0
0
230
16
16
0
0
0
218
24
24
0
0
0
218
24
24
0
0
0
218
24
24
0
0
0
218
24
24
0
0
0
42
0
0
0
0
0
218
24
24
0
0
0
144
16
16
0
0
0
217
24
24
0
0
0
157
8
8
0
0
0
74
8
8
0
0
0
109
12
12
0
0
0
109
12
12
0
0
0
219
24
24
0
0
0
145
16
16
0
0
0
145
16
16
0
0
0
71
8
8
0
0
0
224
20
20
0
0
0
0
0
0
0
0
0
182
19
19
0
0
0
218
24
24
0
0
0
0
0
0
0
0
0
0
0
0
0
0
0
0
0
0
0
0
0
36
4
4
0
0
0
115
0
0
0
0
0
78
4
4
0
0
0
71
7
7
0
0
0
230
16
16
0
0
0
74
10
10
0
0
0
120
6
6
0
0
0
218
24
24
0
0
0
109
12
12
0
0
0
109
12
12
0
0
0
0
0
0
0
0
0
0
0
0
0
0
0
217
24
24
0
0
0
157
8
8
0
0
0
72
8
8
0
0
0
217
26
26
0
0
0
0
0
0
0
0
0
109
12
12
0
0
0
109
12
12
0
0
0
109
12
12
0
0
0
218
24
24
0
0
0
163
4
4
0
0
0
0
0
0
0
0
0
0
0
0
0
0
0
0
0
0
0
0
0
0
0
0
0
0
0
72
8
8
0
0
0
0
0
0
0
0
0
0
0
0
0
0
0
0
0
0
0
0
0
0
0
0
218
26
43
0
0
0
0
0
0
0
0
0
227
28
57
0
0
0
0
0
0
0
0
0
0
0
0
0
0
0
227
28
57
0
0
0
219
25
43
0
0
0
0
0
0
0
0
0
0
0
0
0
0
0
0
0
0
0
0
0
218
26
43
0
0
0
220
26
43
0
0
0
218
23
45
0
0
0
255
0
0
0
0
0
0
0
0
0
0
0
218
24
44
0
0
0
0
0
0
0
0
0
0
0
0
0
0
0
0
0
0
0
0
0
0
0
0
0
0
0
219
25
43
0
0
0
218
24
43
0
0
0
219
25
43
0
0
0
0
0
0
0
0
0
219
25
43
0
0
0
219
25
43
0
0
0
219
25
43
0
0
0
0
0
0
0
0
0
0
0
0
0
0
0
0
0
0
218
24
24
0
0
0
219
25
25
0
0
0
0
0
0
0
0
0
217
25
25
0
0
0
37
5
5
0
0
0
218
23
23
0
0
0
218
24
24
0
0
0
0
0
0
0
0
0
110
12
12
0
0
0
219
23
23
0
0
0
109
12
12
0
0
0
224
20
20
0
0
0
219
24
24
0
0
0
219
24
24
0
0
0
219
24
24
0
0
0
219
24
24
0
0
0
142
25
25
0
0
0
218
24
24
0
0
0
109
12
12
0
0
0
0
0
0
0
0
0
0
0
0
0
0
0
145
16
16
0
0
0
158
7
7
0
0
0
36
4
4
0
0
0
219
25
25
0
0
0
0
0
0
0
0
0
72
5
5
0
0
0
72
8
8
0
0
0
0
0
0
0
0
0
0
0
0
0
0
0
218
24
24
0
0
0
180
19
19
0
0
0
219
26
26
0
0
0
218
24
24
0
0
0
72
8
8
0
0
0
157
8
8
0
0
0
218
24
24
0
0
0
218
24
24
0
0
0
218
24
24
0
0
0
73
7
7
0
0
0
111
14
14
0
0
0
218
24
24
0
0
0
109
12
12
0
0
0
109
12
12
0
0
0
109
12
12
0
0
0
109
12
12
0
0
0
145
16
16
0
0
0
0
0
0
0
0
0
145
16
16
0
0
0
218
24
24
0
0
0
180
18
18
0
0
0
218
24
24
0
0
0
230
16
16
0
0
0
219
24
24
0
0
0
143
22
22
0
0
0
0
0
0
0
0
0
218
25
25
0
0
0
219
23
23
0
0
0
0
0
0
0
0
0
0
0
0
209
23
46
0
0
0
216
20
39
0
0
0
220
26
43
0
0
0
219
26
43
0
0
0
0
0
0
0
0
0
219
25
44
0
0
0
219
25
43
0
0
0
219
25
43
0
0
0
220
25
44
0
0
0
0
0
0
0
0
0
220
25
45
0
0
0
0
0
0
0
0
0
219
25
43
0
0
0
0
0
0
0
0
0
0
0
0
0
0
0
0
0
0
0
0
0
225
30
45
0
0
0
219
18
36
0
0
0
0
0
0
0
0
0
0
0
0
0
0
0
219
25
43
0
0
0
219
25
43
0
0
0
219
25
43
0
0
0
230
26
51
0
0
0
0
0
0
0
0
0
204
0
51
0
0
0
0
0
0
0
0
0
0
0
0
0
0
0
0
0
0
0
0
0
0
0
0
0
0
0
0
0
0
72
8
8
0
0
0
0
0
0
0
0
0
220
25
25
0
0
0
0
0
0
0
0
0
73
7
7
0
0
0
182
20
20
0
0
0
218
24
24
0
0
0
109
13
13
0
0
0
0
0
0
0
0
0
219
25
25
0
0
0
42
0
0
0
0
0
0
0
0
0
0
0
218
24
24
0
0
0
182
20
20
0
0
0
182
21
21
0
0
0
218
24
24
0
0
0
85
0
0
0
0
0
109
12
12
0
0
0
110
13
13
0
0
0
0
0
0
0
0
0
218
25
25
0
0
0
218
24
24
0
0
0
36
4
4
0
0
0
0
0
0
0
0
0
218
24
24
0
0
0
218
24
24
0
0
0
146
14
14
0
0
0
218
24
24
0
0
0
0
0
0
0
0
0
0
0
0
0
0
0
75
9
9
0
0
0
0
0
0
0
0
0
0
0
0
0
0
0
218
24
24
0
0
0
230
16
16
0
0
0
218
24
24
0
0
0
73
8
8
0
0
0
0
0
0
0
0
0
230
16
16
0
0
0
181
23
23
0
0
0
144
14
14
0
0
0
42
0
0
0
0
0
216
24
24
0
0
0
218
25
25
0
0
0
218
24
24
0
0
0
218
25
25
0
0
0
0
0
0
0
0
0
72
8
8
0
0
0
219
25
25
0
0
0
109
13
13
0
0
0
0
0
0
0
0
0
146
17
17
0
0
0
224
20
20
0
0
0
156
8
8
0
0
0
218
24
24
0
0
0
70
6
6
0
0
0
0
0
0
0
0
0
148
17
17
0
0
0
0
0
0
0
0
0
0
0
0
219
25
43
0
0
0
191
0
64
0
0
0
0
0
0
0
0
0
0
0
0
0
0
0
0
0
0
0
0
0
223
21
43
0
0
0
0
0
0
0
0
0
0
0
0
0
0
0
219
25
43
0
0
0
220
28
43
0
0
0
191
0
64
0
0
0
0
0
0
0
0
0
0
0
0
0
0
0
219
26
44
0
0
0
219
26
44
0
0
0
219
26
44
0
0
0
0
0
0
0
0
0
0
0
0
0
0
0
0
0
0
0
0
0
219
25
44
0
0
0
218
26
43
0
0
0
0
0
0
0
0
0
0
0
0
0
0
0
0
0
0
0
0
0
0
0
0
0
0
0
0
0
0
0
0
0
0
0
0
0
0
0
219
26
43
0
0
0
220
25
43
0
0
0
0
0
0
146
16
16
0
0
0
145
16
16
0
0
0
0
0
0
0
0
0
0
0
0
0
0
0
85
0
0
0
0
0
71
6
6
0
0
0
72
7
7
0
0
0
73
9
9
0
0
0
218
24
24
0
0
0
146
15
15
0
0
0
73
8
8
0
0
0
36
4
4
0
0
0
72
8
8
0
0
0
145
15
15
0
0
0
109
12
12
0
0
0
109
12
12
0
0
0
219
24
24
0
0
0
224
20
20
0
0
0
182
20
20
0
0
0
0
0
0
0
0
0
218
24
24
0
0
0
219
25
25
0
0
0
0
0
0
0
0
0
218
24
24
0
0
0
219
23
23
0
0
0
0
0
0
0
0
0
0
0
0
0
0
0
0
0
0
0
0
0
0
0
0
0
0
0
0
0
0
0
0
0
146
17
17
0
0
0
218
24
24
0
0
0
0
0
0
0
0
0
0
0
0
0
0
0
0
0
0
0
0
0
37
5
5
0
0
0
36
3
3
0
0
0
218
24
24
0
0
0
218
24
24
0
0
0
0
0
0
0
0
0
218
24
24
0
0
0
35
4
4
0
0
0
0
0
0
0
0
0
218
24
24
0
0
0
218
24
24
0
0
0
218
24
24
0
0
0
144
16
16
0
0
0
36
4
4
0
0
0
0
0
0
0
0
0
219
23
23
0
0
0
0
0
0
0
0
0
218
24
24
0
0
0
218
25
25
0
0
0
72
8
8
0
0
0
72
7
7
0
0
0
0
0
0
0
0
0
0
0
0
0
0
0
0
0
0
0
0
0
144
17
17
0
0
0
72
7
7
0
0
0
0
0
0
0
0
0
0
0
0
0
0
0
0
0
0
0
0
0
0
0
0
0
0
0
0
0
0
219
25
43
0
0
0
220
25
43
0
0
0
219
25
43
0
0
0
219
25
43
0
0
0
0
0
0
0
0
0
219
25
43
0
0
0
0
0
0
0
0
0
213
28
43
0
0
0
0
0
0
0
0
0
220
25
44
0
0
0
220
25
44
0
0
0
219
26
44
0
0
0
220
24
43
0
0
0
219
24
43
0
0
0
0
0
0
0
0
0
219
26
44
0
0
0
0
0
0
0
0
0
219
25
43
0
0
0
219
25
43
0
0
0
219
25
43
0
0
0
217
26
38
0
0
0
0
0
0
0
0
0
0
0
0
0
0
0
0
0
0
0
0
0
219
25
43
0
0
0
0
0
0
218
24
24
0
0
0
140
7
7
0
0
0
0
0
0
0
0
0
0
0
0
0
0
0
0
0
0
0
0
0
182
20
20
0
0
0
218
24
24
0
0
0
218
24
24
0
0
0
0
0
0
0
0
0
218
24
24
0
0
0
36
4
4
0
0
0
218
24
24
0
0
0
187
16
16
0
0
0
146
16
16
0
0
0
108
13
13
0
0
0
109
12
12
0
0
0
0
0
0
0
0
0
78
3
3
0
0
0
218
25
25
0
0
0
179
20
20
0
0
0
145
16
16
0
0
0
0
0
0
0
0
0
218
24
24
0
0
0
218
24
24
0
0
0
36
4
4
0
0
0
0
0
0
0
0
0
0
0
0
0
0
0
0
0
0
0
0
0
216
30
30
0
0
0
157
8
8
0
0
0
218
24
24
0
0
0
144
16
16
0
0
0
0
0
0
0
0
0
0
0
0
0
0
0
72
8
8
0
0
0
218
24
24
0
0
0
218
24
24
0
0
0
72
7
7
0
0
0
36
4
4
0
0
0
218
24
24
0
0
0
42
0
0
0
0
0
183
21
21
0
0
0
219
24
24
0
0
0
72
8
8
0
0
0
218
24
24
0
0
0
219
25
25
0
0
0
36
4
4
0
0
0
219
25
25
0
0
0
215
23
23
0
0
0
0
0
0
0
0
0
218
24
24
0
0
0
74
10
10
0
0
0
181
19
19
0
0
0
218
24
24
0
0
0
187
16
16
0
0
0
0
0
0
0
0
0
0
0
0
0
0
0
0
0
0
0
0
0
216
22
22
0
0
0
218
24
24
0
0
0
0
0
0
255
0
0
0
0
0
0
0
0
0
0
0
0
0
0
0
0
0
0
0
0
0
0
0
0
0
0
0
0
0
219
25
43
0
0
0
218
25
44
0
0
0
0
0
0
0
0
0
219
25
43
0
0
0
0
0
0
0
0
0
219
25
43
0
0
0
0
0
0
0
0
0
0
0
0
0
0
0
219
26
44
0
0
0
219
26
44
0
0
0
218
26
43
0
0
0
0
0
0
0
0
0
0
0
0
0
0
0
219
25
43
0
0
0
0
0
0
0
0
0
219
25
43
0
0
0
0
0
0
0
0
0
218
25
43
0
0
0
219
25
43
0
0
0
213
28
43
0
0
0
0
0
0
0
0
0
0
0
0
0
0
0
0
0
0
0
0
0
0
0
0
0
0
0
0
0
0
217
25
25
0
0
0
0
0
0
0
0
0
0
0
0
0
0
0
0
0
0
0
0
0
220
24
24
0
0
0
218
24
24
0
0
0
72
6
6
0
0
0
74
10
10
0
0
0
218
24
24
0
0
0
36
3
3
0
0
0
218
24
24
0
0
0
0
0
0
0
0
0
72
7
7
0
0
0
177
15
15
0
0
0
217
24
24
0
0
0
218
23
23
0
0
0
145
16
16
0
0
0
182
21
21
0
0
0
0
0
0
0
0
0
216
22
22
0
0
0
115
8
8
0
0
0
218
24
24
0
0
0
72
6
6
0
0
0
145
16
16
0
0
0
218
24
24
0
0
0
72
8
8
0
0
0
0
0
0
0
0
0
0
0
0
0
0
0
144
16
16
0
0
0
218
24
24
0
0
0
144
15
15
0
0
0
0
0
0
0
0
0
0
0
0
0
0
0
0
0
0
0
0
0
217
24
24
0
0
0
181
20
20
0
0
0
143
14
14
0
0
0
218
24
24
0
0
0
218
24
24
0
0
0
110
14
14
0
0
0
218
24
24
0
0
0
35
7
7
0
0
0
73
8
8
0
0
0
35
7
7
0
0
0
219
25
25
0
0
0
218
24
24
0
0
0
72
8
8
0
0
0
70
4
4
0
0
0
0
0
0
0
0
0
218
24
24
0
0
0
70
14
14
0
0
0
218
24
24
0
0
0
0
0
0
0
0
0
187
15
15
0
0
0
218
24
24
0
0
0
144
16
16
0
0
0
0
0
0
0
0
0
0
0
0
0
0
0
72
8
8
0
0
0
218
24
24
219
26
44
0
0
0
219
25
43
0
0
0
0
0
0
0
0
0
0
0
0
0
0
0
0
0
0
0
0
0
219
26
43
0
0
0
0
0
0
0
0
0
0
0
0
0
0
0
219
25
43
0
0
0
0
0
0
0
0
0
0
0
0
0
0
0
0
0
0
0
0
0
219
25
43
0
0
0
219
25
43
0
0
0
219
26
42
0
0
0
219
25
43
0
0
0
219
24
43
0
0
0
218
25
44
0
0
0
219
25
43
0
0
0
255
0
0
0
0
0
220
26
41
0
0
0
0
0
0
0
0
0
219
25
43
0
0
0
0
0
0
0
0
0
0
0
0
0
0
0
0
0
0
0
0
0
0
0
0
0
0
0
0
0
0
0
0
0
0
0
0
0
0
0
0
0
0
0
0
0
0
0
0
72
6
6
0
0
0
0
0
0
0
0
0
0
0
0
0
0
0
0
0
0
0
0
0
72
8
8
0
0
0
72
8
8
0
0
0
145
13
13
0
0
0
218
24
24
0
0
0
73
7
7
0
0
0
42
0
0
0
0
0
72
8
8
0
0
0
217
23
23
0
0
0
0
0
0
0
0
0
0
0
0
0
0
0
217
26
26
0
0
0
219
25
25
0
0
0
146
16
16
0
0
0
0
0
0
0
0
0
218
28
28
0
0
0
0
0
0
0
0
0
189
18
18
0
0
0
218
25
25
0
0
0
0
0
0
0
0
0
217
25
25
0
0
0
218
24
24
0
0
0
222
26
26
0
0
0
0
0
0
0
0
0
0
0
0
0
0
0
0
0
0
0
0
0
218
24
24
0
0
0
145
16
16
0
0
0
0
0
0
0
0
0
0
0
0
0
0
0
0
0
0
0
0
0
146
15
15
0
0
0
114
11
11
0
0
0
111
14
14
0
0
0
218
24
24
0
0
0
145
16
16
0
0
0
0
0
0
0
0
0
0
0
0
0
0
0
218
24
24
0
0
0
140
12
12
0
0
0
179
21
21
0
0
0
109
12
12
0
0
0
109
12
12
0
0
0
218
25
25
0
0
0
172
12
12
0
0
0
218
24
24
0
0
0
0
0
0
0
0
0
0
0
0
0
0
0
224
20
20
0
0
0
71
8
8
0
0
0
218
24
24
0
0
0
217
16
16
0
0
0
218
23
23
0
0
0
0
0
0
0
0
0
0
0
0
0
0
0
0
0
0
0
0
0
218
24
24
219
26
43
0
0
0
219
26
43
0
0
0
0
0
0
0
0
0
0
0
0
0
0
0
0
0
0
0
0
0
219
25
43
0
0
0
219
25
43
0
0
0
0
0
0
0
0
0
0
0
0
0
0
0
219
26
43
0
0
0
0
0
0
0
0
0
219
24
42
0
0
0
223
32
48
0
0
0
0
0
0
0
0
0
0
0
0
0
0
0
0
0
0
0
0
0
0
0
0
0
0
0
0
0
0
0
0
0
218
23
45
0
0
0
221
25
44
0
0
0
0
0
0
0
0
0
219
25
43
0
0
0
0
0
0
0
0
0
191
0
64
0
0
0
218
25
43
0
0
0
217
26
45
0
0
0
0
0
0
0
0
0
0
0
0
0
0
0
0
0
0
0
0
0
221
24
41
0
0
0
0
0
0
36
5
5
0
0
0
0
0
0
0
0
0
0
0
0
0
0
0
0
0
0
0
0
0
72
7
7
0
0
0
218
24
24
0
0
0
145
17
17
0
0
0
230
16
16
0
0
0
218
24
24
0
0
0
0
0
0
0
0
0
0
0
0
0
0
0
0
0
0
0
0
0
0
0
0
0
0
0
0
0
0
0
0
0
0
0
0
0
0
0
0
0
0
0
0
0
0
0
0
0
0
0
0
0
0
0
0
0
0
0
0
0
0
0
0
0
0
0
0
0
0
0
0
0
0
0
72
8
8
0
0
0
217
24
24
0
0
0
35
7
7
0
0
0
218
24
24
0
0
0
218
24
24
0
0
0
0
0
0
0
0
0
0
0
0
0
0
0
0
0
0
0
0
0
217
22
22
0
0
0
0
0
0
0
0
0
0
0
0
0
0
0
0
0
0
0
0
0
0
0
0
0
0
0
140
23
23
0
0
0
218
24
24
0
0
0
230
16
16
0
0
0
144
16
16
0
0
0
242
8
8
0
0
0
0
0
0
0
0
0
0
0
0
0
0
0
0
0
0
0
0
0
0
0
0
0
0
0
73
9
9
0
0
0
224
19
19
0
0
0
220
24
24
0
0
0
0
0
0
0
0
0
0
0
0
0
0
0
0
0
0
0
0
0
0
0
0
0
0
0
0
0
0
0
0
0
144
16
16
0
0
0
230
16
16
0
0
0
145
17
17
0
0
0
218
24
24
0
0
0
218
29
29
0
0
0
0
0
0
0
0
0
0
0
0
0
0
0
0
0
0
0
0
0
157
8
8
219
25
43
0
0
0
220
24
44
0
0
0
0
0
0
0
0
0
0
0
0
0
0
0
0
0
0
0
0
0
219
25
43
0
0
0
0
0
0
0
0
0
219
25
43
0
0
0
219
25
44
0
0
0
219
25
44
0
0
0
0
0
0
0
0
0
0
0
0
0
0
0
0
0
0
0
0
0
0
0
0
0
0
0
0
0
0
0
0
0
219
24
43
0
0
0
218
24
43
0
0
0
0
0
0
0
0
0
0
0
0
0
0
0
219
25
43
0
0
0
0
0
0
0
0
0
219
25
43
0
0
0
218
25
43
0
0
0
217
26
38
0
0
0
219
25
43
0
0
0
219
25
44
0
0
0
0
0
0
0
0
0
0
0
0
0
0
0
0
0
0
0
0
0
218
25
44
0
0
0
0
0
0
0
0
0
0
0
0
0
0
0
0
0
0
72
8
8
0
0
0
36
4
4
0
0
0
71
8
8
0
0
0
218
24
24
0
0
0
216
21
21
0
0
0
157
7
7
0
0
0
217
22
22
0
0
0
0
0
0
0
0
0
0
0
0
0
0
0
0
0
0
0
0
0
0
0
0
0
0
0
144
16
16
0
0
0
182
20
20
0
0
0
181
19
19
0
0
0
0
0
0
0
0
0
0
0
0
0
0
0
0
0
0
0
0
0
0
0
0
0
0
0
0
0
0
0
0
0
230
17
17
0
0
0
146
16
16
0
0
0
73
8
8
0
0
0
218
24
24
0
0
0
217
24
24
0
0
0
185
20
20
0
0
0
194
12
12
0
0
0
0
0
0
0
0
0
188
16
16
0
0
0
147
18
18
0
0
0
0
0
0
0
0
0
72
8
8
0
0
0
142
17
17
0
0
0
145
15
15
0
0
0
218
24
24
0
0
0
36
3
3
0
0
0
220
26
26
0
0
0
72
8
8
0
0
0
0
0
0
0
0
0
72
8
8
0
0
0
0
0
0
0
0
0
0
0
0
0
0
0
36
4
4
0
0
0
36
4
4
0
0
0
109
11
11
0
0
0
0
0
0
0
0
0
0
0
0
0
0
0
0
0
0
0
0
0
0
0
0
0
0
0
0
0
0
0
0
0
72
8
8
0
0
0
147
18
18
0
0
0
217
24
24
0
0
0
218
24
24
0
0
0
219
25
25
0
0
0
218
24
24
0
0
0
218
24
24
0
0
0
0
0
0
0
0
0
219
27
27
219
26
44
0
0
0
219
25
43
0
0
0
219
24
43
0
0
0
219
24
45
0
0
0
0
0
0
0
0
0
219
25
43
0
0
0
230
26
51
0
0
0
219
24
43
0
0
0
219
25
43
0
0
0
218
26
44
0
0
0
0
0
0
0
0
0
0
0
0
0
0
0
0
0
0
0
0
0
0
0
0
0
0
0
0
0
0
0
0
0
0
0
0
0
0
0
0
0
0
0
0
0
0
0
0
0
0
0
0
0
0
0
0
0
213
21
43
0
0
0
0
0
0
0
0
0
219
25
43
0
0
0
219
25
43
0
0
0
219
25
43
0
0
0
218
26
43
0
0
0
213
28
43
0
0
0
0
0
0
0
0
0
220
26
43
0
0
0
219
25
43
0
0
0
221
24
43
0
0
0
0
0
0
72
6
6
0
0
0
0
0
0
0
0
0
73
8
8
0
0
0
36
3
3
0
0
0
72
8
8
0
0
0
231
16
16
0
0
0
183
20
20
0
0
0
216
20
20
0
0
0
36
3
3
0
0
0
0
0
0
0
0
0
146
16
16
0
0
0
0
0
0
0
0
0
0
0
0
0
0
0
36
4
4
0
0
0
36
4
4
0
0
0
108
11
11
0
0
0
0
0
0
0
0
0
0
0
0
0
0
0
0
0
0
0
0
0
36
5
5
0
0
0
0
0
0
0
0
0
78
4
4
0
0
0
217
24
24
0
0
0
0
0
0
0
0
0
218
23
23
0
0
0
218
24
24
0
0
0
218
24
24
0
0
0
218
26
26
0
0
0
0
0
0
0
0
0
218
24
24
0
0
0
146
15
15
0
0
0
0
0
0
0
0
0
0
0
0
0
0
0
0
0
0
0
0
0
144
15
15
0
0
0
144
15
15
0
0
0
36
4
4
0
0
0
218
24
24
0
0
0
219
23
23
0
0
0
0
0
0
0
0
0
72
8
8
0
0
0
215
24
24
0
0
0
146
17
17
0
0
0
72
8
8
0
0
0
218
28
28
0
0
0
110
14
14
0
0
0
78
4
4
0
0
0
36
4
4
0
0
0
0
0
0
0
0
0
146
14
14
0
0
0
0
0
0
0
0
0
144
16
16
0
0
0
75
9
9
0
0
0
72
8
8
0
0
0
218
24
24
0
0
0
180
20
20
0
0
0
0
0
0
0
0
0
0
0
0
0
0
0
0
0
0
0
0
0
218
24
24
220
23
43
0
0
0
219
26
44
0
0
0
0
0
0
0
0
0
0
0
0
0
0
0
0
0
0
0
0
0
219
25
43
0
0
0
220
25
44
0
0
0
0
0
0
0
0
0
0
0
0
0
0
0
0
0
0
0
0
0
0
0
0
0
0
0
0
0
0
0
0
0
220
25
43
0
0
0
219
26
43
0
0
0
219
25
43
0
0
0
219
25
43
0
0
0
219
26
43
0
0
0
219
25
43
0
0
0
219
24
44
0
0
0
0
0
0
0
0
0
0
0
0
0
0
0
221
24
41
0
0
0
220
26
43
0
0
0
0
0
0
0
0
0
219
25
43
0
0
0
0
0
0
0
0
0
0
0
0
0
0
0
0
0
0
0
0
0
0
0
0
0
0
0
0
0
0
0
0
0
0
0
0
144
16
16
0
0
0
0
0
0
0
0
0
0
0
0
0
0
0
0
0
0
0
0
0
218
24
24
0
0
0
219
25
25
0
0
0
37
4
4
0
0
0
177
16
16
0
0
0
187
16
16
0
0
0
0
0
0
0
0
0
188
16
16
0
0
0
73
8
8
0
0
0
0
0
0
0
0
0
72
7
7
0
0
0
217
24
24
0
0
0
0
0
0
0
0
0
218
24
24
0
0
0
109
11
11
0
0
0
0
0
0
0
0
0
72
7
7
0
0
0
0
0
0
0
0
0
72
8
8
0
0
0
145
16
16
0
0
0
218
24
24
0
0
0
218
24
24
0
0
0
72
7
7
0
0
0
0
0
0
0
0
0
0
0
0
0
0
0
146
16
16
0
0
0
218
24
24
0
0
0
218
24
24
0
0
0
84
0
0
0
0
0
0
0
0
0
0
0
0
0
0
0
0
0
149
16
16
0
0
0
218
24
24
0
0
0
217
25
25
0
0
0
218
24
24
0
0
0
218
24
24
0
0
0
0
0
0
0
0
0
208
8
8
0
0
0
0
0
0
0
0
0
0
0
0
0
0
0
0
0
0
0
0
0
0
0
0
0
0
0
0
0
0
0
0
0
0
0
0
0
0
0
0
0
0
0
0
0
0
0
0
0
0
0
144
16
16
0
0
0
0
0
0
0
0
0
145
15
15
0
0
0
179
21
21
0
0
0
143
13
13
0
0
0
218
24
24
0
0
0
75
9
9
0
0
0
0
0
0
0
0
0
0
0
0
0
0
0
72
8
8
0
0
0
218
24
24
0
0
0
0
0
0
0
0
0
0
0
0
0
0
0
0
0
0
0
0
0
0
0
0
0
0
0
0
0
0
0
0
0
0
0
0
219
25
43
0
0
0
219
25
43
0
0
0
219
24
42
0
0
0
0
0
0
0
0
0
0
0
0
0
0
0
0
0
0
0
0
0
0
0
0
0
0
0
0
0
0
0
0
0
0
0
0
0
0
0
0
0
0
0
0
0
0
0
0
0
0
0
0
0
0
0
0
0
0
0
0
0
0
0
0
0
0
0
0
0
0
0
0
0
0
0
0
0
0
0
0
0
219
25
43
0
0
0
0
0
0
0
0
0
219
25
43
0
0
0
219
24
43
0
0
0
0
0
0
0
0
0
0
0
0
0
0
0
0
0
0
0
0
0
0
0
0
0
0
0
0
0
0
218
24
24
0
0
0
72
8
8
0
0
0
0
0
0
0
0
0
0
0
0
0
0
0
72
9
9
0
0
0
218
24
24
0
0
0
230
16
16
0
0
0
185
20
20
0
0
0
72
8
8
0
0
0
0
0
0
0
0
0
188
16
16
0
0
0
0
0
0
0
0
0
145
16
16
0
0
0
72
8
8
0
0
0
219
24
24
0
0
0
218
24
24
0
0
0
178
18
18
0
0
0
218
23
23
0
0
0
0
0
0
0
0
0
73
9
9
0
0
0
0
0
0
0
0
0
218
24
24
0
0
0
109
13
13
0
0
0
219
25
25
0
0
0
72
8
8
0
0
0
0
0
0
0
0
0
0
0
0
0
0
0
0
0
0
0
0
0
218
24
24
0
0
0
231
17
17
0
0
0
218
24
24
0
0
0
214
20
20
0
0
0
0
0
0
0
0
0
0
0
0
0
0
0
0
0
0
0
0
0
72
8
8
0
0
0
218
24
24
0
0
0
182
18
18
0
0
0
112
12
12
0
0
0
218
24
24
0
0
0
72
8
8
0
0
0
0
0
0
0
0
0
221
25
25
0
0
0
144
16
16
0
0
0
218
24
24
0
0
0
144
16
16
0
0
0
218
24
24
0
0
0
218
25
25
0
0
0
0
0
0
0
0
0
36
4
4
0
0
0
218
24
24
0
0
0
209
16
16
0
0
0
193
11
11
0
0
0
218
24
24
0
0
0
0
0
0
0
0
0
0
0
0
0
0
0
0
0
0
0
0
0
0
0
0
0
0
0
180
23
23
0
0
0
144
15
15
0
0
0
0
0
0
0
0
0
0
0
0
0
0
0
0
0
0
0
0
0
0
0
0
0
0
0
0
0
0
219
25
43
0
0
0
219
25
43
0
0
0
219
27
46
0
0
0
219
25
43
0
0
0
220
26
44
0
0
0
219
25
43
0
0
0
0
0
0
0
0
0
0
0
0
0
0
0
0
0
0
0
0
0
219
25
43
0
0
0
0
0
0
0
0
0
0
0
0
0
0
0
0
0
0
0
0
0
0
0
0
0
0
0
218
23
44
0
0
0
219
25
44
0
0
0
220
26
43
0
0
0
223
21
43
0
0
0
219
25
43
0
0
0
219
25
43
0
0
0
0
0
0
0
0
0
0
0
0
0
0
0
0
0
0
0
0
0
0
0
0
0
0
0
219
25
43
0
0
0
0
0
0
146
16
16
0
0
0
181
19
19
0
0
0
0
0
0
0
0
0
0
0
0
0
0
0
0
0
0
0
0
0
35
4
4
0
0
0
72
7
7
0
0
0
0
0
0
0
0
0
218
24
24
0
0
0
140
12
12
0
0
0
218
24
24
0
0
0
0
0
0
0
0
0
109
11
11
0
0
0
36
4
4
0
0
0
0
0
0
0
0
0
37
5
5
0
0
0
108
13
13
0
0
0
109
12
12
0
0
0
0
0
0
0
0
0
218
24
24
0
0
0
218
24
24
0
0
0
217
24
24
0
0
0
218
24
24
0
0
0
182
20
20
0
0
0
183
19
19
0
0
0
0
0
0
0
0
0
0
0
0
0
0
0
0
0
0
0
0
0
35
4
4
0
0
0
0
0
0
0
0
0
78
4
4
0
0
0
73
7
7
0
0
0
0
0
0
0
0
0
0
0
0
0
0
0
0
0
0
0
0
0
181
20
20
0
0
0
181
20
20
0
0
0
181
19
19
0
0
0
218
24
24
0
0
0
218
24
24
0
0
0
219
24
24
0
0
0
0
0
0
0
0
0
0
0
0
0
0
0
0
0
0
0
0
0
0
0
0
0
0
0
0
0
0
0
0
0
0
0
0
0
0
0
0
0
0
0
0
0
0
0
0
0
0
0
185
20
20
0
0
0
218
24
24
0
0
0
181
20
20
0
0
0
144
16
16
0
0
0
218
24
24
0
0
0
224
20
20
0
0
0
0
0
0
0
0
0
0
0
0
0
0
0
0
0
0
0
0
0
36
4
4
0
0
0
0
0
0
0
0
0
0
0
0
219
25
43
0
0
0
219
24
44
0
0
0
0
0
0
0
0
0
0
0
0
0
0
0
0
0
0
0
0
0
0
0
0
0
0
0
0
0
0
0
0
0
219
25
43
0
0
0
191
0
64
0
0
0
218
25
41
0
0
0
0
0
0
0
0
0
0
0
0
0
0
0
0
0
0
0
0
0
0
0
0
0
0
0
0
0
0
0
0
0
0
0
0
0
0
0
0
0
0
0
0
0
0
0
0
0
0
0
255
0
0
0
0
0
0
0
0
0
0
0
218
25
43
0
0
0
220
23
46
0
0
0
219
18
36
0
0
0
0
0
0
0
0
0
0
0
0
0
0
0
0
0
0
0
0
0
0
0
0
0
0
0
218
24
43
0
0
0
219
25
43
0
0
0
0
0
0
0
0
0
0
0
0
67
4
4
0
0
0
0
0
0
0
0
0
0
0
0
0
0
0
0
0
0
0
0
0
188
15
15
0
0
0
218
24
24
0
0
0
145
15
15
0
0
0
145
16
16
0
0
0
230
16
16
0
0
0
109
12
12
0
0
0
36
4
4
0
0
0
109
12
12
0
0
0
109
12
12
0
0
0
226
22
22
0
0
0
147
16
16
0
0
0
109
12
12
0
0
0
37
4
4
0
0
0
0
0
0
0
0
0
216
25
25
0
0
0
218
24
24
0
0
0
224
20
20
0
0
0
182
21
21
0
0
0
157
8
8
0
0
0
42
0
0
0
0
0
0
0
0
0
0
0
0
0
0
0
0
0
73
12
12
0
0
0
224
20
20
0
0
0
0
0
0
0
0
0
0
0
0
0
0
0
181
20
20
0
0
0
74
10
10
0
0
0
0
0
0
0
0
0
0
0
0
0
0
0
0
0
0
0
0
0
70
4
4
0
0
0
218
24
24
0
0
0
217
23
23
0
0
0
122
5
5
0
0
0
71
8
8
0
0
0
145
16
16
0
0
0
218
24
24
0
0
0
103
9
9
0
0
0
218
25
25
0
0
0
218
25
25
0
0
0
108
14
14
0
0
0
218
24
24
0
0
0
218
24
24
0
0
0
181
21
21
0
0
0
145
16
16
0
0
0
108
13
13
0
0
0
218
24
24
0
0
0
36
4
4
0
0
0
0
0
0
0
0
0
0
0
0
0
0
0
0
0
0
0
0
0
157
8
8
0
0
0
218
24
24
0
0
0
0
0
0
0
0
0
0
0
0
0
0
0
0
0
0
0
0
0
0
0
0
0
0
0
0
0
0
0
0
0
0
0
0
0
0
0
0
0
0
220
24
42
0
0
0
219
25
43
0
0
0
219
25
43
0
0
0
219
25
43
0
0
0
219
25
43
0
0
0
219
26
43
0
0
0
219
25
43
0
0
0
0
0
0
0
0
0
219
25
43
0
0
0
220
26
43
0
0
0
220
23
41
0
0
0
220
26
44
0
0
0
219
25
43
0
0
0
0
0
0
0
0
0
219
24
42
0
0
0
221
17
51
0
0
0
219
25
43
0
0
0
219
27
46
0
0
0
0
0
0
0
0
0
0
0
0
0
0
0
0
0
0
0
0
0
0
0
0
0
0
0
0
0
0
0
0
0
0
0
0
0
0
0
0
0
0
0
0
0
0
0
0
218
24
24
0
0
0
216
24
24
0
0
0
0
0
0
0
0
0
0
0
0
0
0
0
0
0
0
0
0
0
145
15
15
0
0
0
218
24
24
0
0
0
212
18
18
0
0
0
109
10
10
0
0
0
216
23
23
0
0
0
221
25
25
0
0
0
177
12
12
0
0
0
0
0
0
0
0
0
218
25
25
0
0
0
218
24
24
0
0
0
75
9
9
0
0
0
182
20
20
0
0
0
183
20
20
0
0
0
218
24
24
0
0
0
109
12
12
0
0
0
218
24
24
0
0
0
218
24
24
0
0
0
209
16
16
0
0
0
0
0
0
0
0
0
0
0
0
0
0
0
0
0
0
0
0
0
146
18
18
0
0
0
145
15
15
0
0
0
0
0
0
0
0
0
0
0
0
0
0
0
146
16
16
0
0
0
146
18
18
0
0
0
0
0
0
0
0
0
0
0
0
0
0
0
0
0
0
0
0
0
145
16
16
0
0
0
230
16
16
0
0
0
218
24
24
0
0
0
110
12
12
0
0
0
109
12
12
0
0
0
218
25
25
0
0
0
70
14
14
0
0
0
180
21
21
0
0
0
218
24
24
0
0
0
218
24
24
0
0
0
219
24
24
0
0
0
72
8
8
0
0
0
72
7
7
0
0
0
146
16
16
0
0
0
222
24
24
0
0
0
218
24
24
0
0
0
156
8
8
0
0
0
71
9
9
0
0
0
0
0
0
0
0
0
0
0
0
0
0
0
0
0
0
0
0
0
71
6
6
0
0
0
71
7
7
0
0
0
0
0
0
0
0
0
0
0
0
0
0
0
0
0
0
219
25
43
0
0
0
220
23
41
0
0
0
0
0
0
0
0
0
0
0
0
0
0
0
0
0
0
0
0
0
219
25
43
0
0
0
219
25
43
0
0
0
219
25
43
0
0
0
218
25
44
0
0
0
219
22
44
0
0
0
218
25
44
0
0
0
220
28
43
0
0
0
219
25
43
0
0
0
219
24
42
0
0
0
220
25
43
0
0
0
0
0
0
0
0
0
219
25
43
0
0
0
191
0
64
0
0
0
191
0
64
0
0
0
219
25
43
0
0
0
218
25
44
0
0
0
219
24
42
0
0
0
0
0
0
0
0
0
0
0
0
0
0
0
0
0
0
0
0
0
219
25
43
0
0
0
219
25
43
0
0
0
0
0
0
0
0
0
0
0
0
0
0
0
0
0
0
0
0
0
0
0
0
78
4
4
0
0
0
0
0
0
0
0
0
0
0
0
0
0
0
0
0
0
0
0
0
36
3
3
0
0
0
163
3
3
0
0
0
218
24
24
0
0
0
182
24
24
0
0
0
145
15
15
0
0
0
144
15
15
0
0
0
143
16
16
0
0
0
158
8
8
0
0
0
144
15
15
0
0
0
218
24
24
0
0
0
71
7
7
0
0
0
218
24
24
0
0
0
213
20
20
0
0
0
37
3
3
0
0
0
182
20
20
0
0
0
218
24
24
0
0
0
224
20
20
0
0
0
181
20
20
0
0
0
0
0
0
0
0
0
0
0
0
0
0
0
73
8
8
0
0
0
182
20
20
0
0
0
0
0
0
0
0
0
0
0
0
0
0
0
0
0
0
0
0
0
0
0
0
0
0
0
217
23
23
0
0
0
186
15
15
0
0
0
0
0
0
0
0
0
35
3
3
0
0
0
218
24
24
0
0
0
145
16
16
0
0
0
145
16
16
0
0
0
73
8
8
0
0
0
218
23
23
0
0
0
145
16
16
0
0
0
218
25
25
0
0
0
182
20
20
0
0
0
145
16
16
0
0
0
218
24
24
0
0
0
145
16
16
0
0
0
218
24
24
0
0
0
218
24
24
0
0
0
219
24
24
0
0
0
219
26
26
0
0
0
72
8
8
0
0
0
72
7
7
0
0
0
145
16
16
0
0
0
0
0
0
0
0
0
0
0
0
0
0
0
221
25
25
0
0
0
218
24
24
0
0
0
0
0
0
0
0
0
0
0
0
0
0
0
0
0
0
0
0
0
0
0
0
0
0
0
0
0
0
0
0
0
0
0
0
0
0
0
0
0
0
0
0
0
0
0
0
219
26
43
0
0
0
0
0
0
0
0
0
219
25
44
0
0
0
219
24
43
0
0
0
0
0
0
0
0
0
0
0
0
0
0
0
219
27
46
0
0
0
220
26
43
0
0
0
219
25
43
0
0
0
0
0
0
0
0
0
255
0
85
0
0
0
219
26
44
0
0
0
0
0
0
0
0
0
0
0
0
0
0
0
221
24
41
0
0
0
219
27
46
0
0
0
218
25
43
0
0
0
0
0
0
0
0
0
0
0
0
0
0
0
0
0
0
0
0
0
0
0
0
0
0
0
219
26
41
0
0
0
0
0
0
0
0
0
0
0
0
0
0
0
0
0
0
0
0
0
0
0
0
0
0
0
0
0
0
213
20
20
0
0
0
181
19
19
0
0
0
0
0
0
0
0
0
218
24
24
0
0
0
0
0
0
0
0
0
36
4
4
0
0
0
145
17
17
0
0
0
218
24
24
0
0
0
218
24
24
0
0
0
73
5
5
0
0
0
0
0
0
0
0
0
218
25
25
0
0
0
218
23
23
0
0
0
218
24
24
0
0
0
221
25
25
0
0
0
216
28
28
0
0
0
68
7
7
0
0
0
218
24
24
0
0
0
145
16
16
0
0
0
218
25
25
0
0
0
182
20
20
0
0
0
181
19
19
0
0
0
0
0
0
0
0
0
0
0
0
0
0
0
35
3
3
0
0
0
78
3
3
0
0
0
0
0
0
0
0
0
0
0
0
0
0
0
0
0
0
0
0
0
0
0
0
0
0
0
36
3
3
0
0
0
71
8
8
0
0
0
0
0
0
0
0
0
217
27
27
0
0
0
0
0
0
0
0
0
213
17
17
0
0
0
100
4
4
0
0
0
126
0
0
0
0
0
218
24
24
0
0
0
109
12
12
0
0
0
218
24
24
0
0
0
218
23
23
0
0
0
109
12
12
0
0
0
145
16
16
0
0
0
217
24
24
0
0
0
0
0
0
0
0
0
230
16
16
0
0
0
218
24
24
0
0
0
121
4
4
0
0
0
84
0
0
0
0
0
143
12
12
0
0
0
218
24
24
0
0
0
69
7
7
0
0
0
36
4
4
0
0
0
145
17
17
0
0
0
0
0
0
0
0
0
0
0
0
0
0
0
0
0
0
0
0
0
0
0
0
0
0
0
0
0
0
0
0
0
0
0
0
219
25
43
0
0
0
213
43
43
0
0
0
0
0
0
0
0
0
0
0
0
0
0
0
218
25
43
0
0
0
219
25
43
0
0
0
230
26
51
0
0
0
0
0
0
0
0
0
219
25
43
0
0
0
219
26
41
0
0
0
219
24
42
0
0
0
220
25
43
0
0
0
0
0
0
0
0
0
219
25
43
0
0
0
220
26
42
0
0
0
219
25
43
0
0
0
219
26
43
0
0
0
0
0
0
0
0
0
0
0
0
0
0
0
219
25
43
0
0
0
0
0
0
0
0
0
219
25
43
0
0
0
0
0
0
0
0
0
0
0
0
0
0
0
0
0
0
0
0
0
0
0
0
0
0
0
0
0
0
0
0
0
0
0
0
0
0
0
0
0
0
0
0
0
0
0
0
0
0
0
0
0
0
218
24
24
0
0
0
217
24
24
0
0
0
218
24
24
0
0
0
218
26
26
0
0
0
0
0
0
0
0
0
67
4
4
0
0
0
194
12
12
0
0
0
35
4
4
0
0
0
219
24
24
0
0
0
218
24
24
0
0
0
145
15
15
0
0
0
72
8
8
0
0
0
217
25
25
0
0
0
218
24
24
0
0
0
218
24
24
0
0
0
145
16
16
0
0
0
109
12
12
0
0
0
36
3
3
0
0
0
218
24
24
0
0
0
36
4
4
0
0
0
0
0
0
0
0
0
143
23
23
0
0
0
146
13
13
0
0
0
218
25
25
0
0
0
0
0
0
0
0
0
0
0
0
0
0
0
0
0
0
0
0
0
0
0
0
0
0
0
0
0
0
0
0
0
0
0
0
0
0
0
145
15
15
0
0
0
36
4
4
0
0
0
37
5
5
0
0
0
72
8
8
0
0
0
71
8
8
0
0
0
144
15
15
0
0
0
73
8
8
0
0
0
145
16
16
0
0
0
74
10
10
0
0
0
143
15
15
0
0
0
218
24
24
0
0
0
218
24
24
0
0
0
218
24
24
0
0
0
218
24
24
0
0
0
109
12
12
0
0
0
111
14
14
0
0
0
109
12
12
0
0
0
78
4
4
0
0
0
218
24
24
0
0
0
0
0
0
0
0
0
0
0
0
0
0
0
37
4
4
0
0
0
36
4
4
0
0
0
72
7
7
0
0
0
0
0
0
0
0
0
0
0
0
0
0
0
0
0
0
0
0
0
0
0
0
0
0
0
0
0
0
0
0
0
0
0
0
0
0
0
0
0
0
219
25
43
0
0
0
217
27
43
0
0
0
0
0
0
0
0
0
0
0
0
0
0
0
220
24
43
0
0
0
0
0
0
0
0
0
0
0
0
0
0
0
223
21
43
0
0
0
217
26
38
0
0
0
0
0
0
0
0
0
217
26
45
0
0
0
219
25
44
0
0
0
213
28
43
0
0
0
0
0
0
0
0
0
219
24
42
0
0
0
0
0
0
0
0
0
220
23
41
0
0
0
223
32
32
0
0
0
219
25
43
0
0
0
0
0
0
0
0
0
0
0
0
0
0
0
0
0
0
0
0
0
220
26
43
0
0
0
0
0
0
0
0
0
0
0
0
0
0
0
0
0
0
0
0
0
0
0
0
0
0
0
0
0
0
0
0
0
0
0
0
0
0
0
0
0
0
0
0
0
0
0
0
219
25
25
0
0
0
217
23
23
0
0
0
0
0
0
0
0
0
145
14
14
0
0
0
219
26
26
0
0
0
35
3
3
0
0
0
109
12
12
0
0
0
73
7
7
0
0
0
218
23
23
0
0
0
109
12
12
0
0
0
108
12
12
0
0
0
109
12
12
0
0
0
109
12
12
0
0
0
220
26
26
0
0
0
0
0
0
0
0
0
146
17
17
0
0
0
36
3
3
0
0
0
71
7
7
0
0
0
69
4
4
0
0
0
0
0
0
0
0
0
145
16
16
0
0
0
218
24
24
0
0
0
0
0
0
0
0
0
0
0
0
0
0
0
0
0
0
0
0
0
0
0
0
0
0
0
0
0
0
0
0
0
0
0
0
0
0
0
0
0
0
0
0
0
0
0
0
0
0
0
145
16
16
0
0
0
37
5
5
0
0
0
73
5
5
0
0
0
144
14
14
0
0
0
218
24
24
0
0
0
0
0
0
0
0
0
181
20
20
0
0
0
109
12
12
0
0
0
0
0
0
0
0
0
109
12
12
0
0
0
109
12
12
0
0
0
109
12
12
0
0
0
108
12
12
0
0
0
0
0
0
0
0
0
217
24
24
0
0
0
0
0
0
0
0
0
180
21
21
0
0
0
0
0
0
0
0
0
218
24
24
0
0
0
113
12
12
0
0
0
36
4
4
0
0
0
115
7
7
0
0
0
0
0
0
0
0
0
0
0
0
0
0
0
0
0
0
0
0
0
0
0
0
0
0
0
0
0
0
0
0
0
0
0
0
0
0
0
0
0
0
0
0
0
0
0
0
0
0
0
0
0
0
219
25
43
0
0
0
0
0
0
0
0
0
0
0
0
0
0
0
0
0
0
0
0
0
0
0
0
0
0
0
219
25
43
0
0
0
215
27
40
0
0
0
0
0
0
0
0
0
0
0
0
0
0
0
0
0
0
0
0
0
0
0
0
0
0
0
0
0
0
0
0
0
0
0
0
0
0
0
219
25
43
0
0
0
204
0
51
0
0
0
255
0
85
0
0
0
0
0
0
0
0
0
227
28
57
0
0
0
0
0
0
0
0
0
0
0
0
0
0
0
220
26
43
0
0
0
0
0
0
0
0
0
0
0
0
0
0
0
0
0
0
0
0
0
0
0
0
0
0
0
0
0
0
0
0
0
0
0
0
0
0
0
0
0
0
0
0
0
0
0
0
0
0
0
0
0
0
0
0
0
0
0
0
218
24
24
0
0
0
182
18
18
0
0
0
0
0
0
0
0
0
218
24
24
0
0
0
72
6
6
0
0
0
42
0
0
0
0
0
218
24
24
0
0
0
188
16
16
0
0
0
218
24
24
0
0
0
218
23
23
0
0
0
146
16
16
0
0
0
219
24
24
0
0
0
35
4
4
0
0
0
109
12
12
0
0
0
110
11
11
0
0
0
218
24
24
0
0
0
0
0
0
0
0
0
71
9
9
0
0
0
36
4
4
0
0
0
217
24
24
0
0
0
0
0
0
0
0
0
0
0
0
0
0
0
0
0
0
0
0
0
0
0
0
0
0
0
0
0
0
0
0
0
0
0
0
0
0
0
0
0
0
0
0
0
0
0
0
0
0
0
0
0
0
0
0
0
0
0
0
0
0
0
146
18
18
0
0
0
108
11
11
0
0
0
224
20
20
0
0
0
115
8
8
0
0
0
144
17
17
0
0
0
0
0
0
0
0
0
218
24
24
0
0
0
218
25
25
0
0
0
212
17
17
0
0
0
36
4
4
0
0
0
31
0
0
0
0
0
0
0
0
0
0
0
146
15
15
0
0
0
218
24
24
0
0
0
218
24
24
0
0
0
217
25
25
0
0
0
0
0
0
0
0
0
218
26
26
0
0
0
145
16
16
0
0
0
73
8
8
0
0
0
0
0
0
0
0
0
0
0
0
0
0
0
0
0
0
0
0
0
0
0
0
0
0
0
0
0
0
0
0
0
0
0
0
0
0
0
0
0
0
0
0
0
0
0
0
0
0
0
0
0
0
0
0
0
0
0
0
0
0
0
0
0
0
220
24
43
0
0
0
0
0
0
0
0
0
219
26
43
0
0
0
0
0
0
0
0
0
220
25
43
0
0
0
0
0
0
0
0
0
216
26
46
0
0
0
0
0
0
0
0
0
219
25
43
0
0
0
0
0
0
0
0
0
219
25
43
0
0
0
219
25
43
0
0
0
0
0
0
0
0
0
0
0
0
0
0
0
0
0
0
0
0
0
0
0
0
0
0
0
219
24
43
0
0
0
218
25
41
0
0
0
0
0
0
0
0
0
0
0
0
0
0
0
0
0
0
0
0
0
0
0
0
0
0
0
0
0
0
0
0
0
0
0
0
0
0
0
0
0
0
0
0
0
0
0
0
0
0
0
0
0
0
0
0
0
0
0
0
0
0
0
0
0
0
0
0
0
0
0
0
0
0
0
0
0
0
213
20
20
0
0
0
121
3
3
0
0
0
217
23
23
0
0
0
73
9
9
0
0
0
0
0
0
0
0
0
218
24
24
0
0
0
0
0
0
0
0
0
218
24
24
0
0
0
224
20
20
0
0
0
0
0
0
0
0
0
218
24
24
0
0
0
0
0
0
0
0
0
109
12
12
0
0
0
219
24
24
0
0
0
0
0
0
0
0
0
219
21
21
0
0
0
183
22
22
0
0
0
151
11
11
0
0
0
0
0
0
0
0
0
0
0
0
0
0
0
0
0
0
0
0
0
0
0
0
0
0
0
0
0
0
0
0
0
0
0
0
0
0
0
0
0
0
0
0
0
0
0
0
0
0
0
0
0
0
0
0
0
0
0
0
0
0
0
0
0
0
0
0
0
0
0
0
0
0
0
0
0
0
0
0
0
218
24
24
0
0
0
37
5
5
0
0
0
181
20
20
0
0
0
0
0
0
0
0
0
218
24
24
0
0
0
0
0
0
0
0
0
218
24
24
0
0
0
0
0
0
0
0
0
0
0
0
0
0
0
99
4
4
0
0
0
183
22
22
0
0
0
180
21
21
0
0
0
70
14
14
0
0
0
217
25
25
0
0
0
36
4
4
0
0
0
218
24
24
0
0
0
0
0
0
0
0
0
0
0
0
0
0
0
0
0
0
0
0
0
0
0
0
0
0
0
0
0
0
0
0
0
0
0
0
0
0
0
0
0
0
0
0
0
0
0
0
0
0
0
0
0
0
0
0
0
0
0
0
0
0
0
0
0
0
0
0
0
0
0
0
0
0
0
0
0
0
0
0
0
0
0
0
0
0
0
0
0
0
219
25
43
0
0
0
0
0
0
0
0
0
219
25
43
0
0
0
0
0
0
0
0
0
0
0
0
0
0
0
0
0
0
0
0
0
220
25
43
0
0
0
219
26
43
0
0
0
219
25
43
0
0
0
215
27
40
0
0
0
0
0
0
0
0
0
0
0
0
0
0
0
219
26
42
0
0
0
0
0
0
0
0
0
219
25
43
0
0
0
0
0
0
0
0
0
0
0
0
0
0
0
0
0
0
0
0
0
0
0
0
0
0
0
0
0
0
0
0
0
0
0
0
0
0
0
0
0
0
0
0
0
0
0
0
0
0
0
0
0
0
0
0
0
0
0
0
0
0
0
0
0
0
0
0
0
0
0
0
0
0
0
0
0
0
0
0
0
0
0
0
0
0
0
0
0
0
0
0
0
0
0
0
218
24
24
0
0
0
110
14
14
0
0
0
181
21
21
0
0
0
109
12
12
0
0
0
0
0
0
0
0
0
109
12
12
0
0
0
109
12
12
0
0
0
63
0
0
0
0
0
36
4
4
0
0
0
0
0
0
0
0
0
109
12
12
0
0
0
109
12
12
0
0
0
109
12
12
0
0
0
219
24
24
0
0
0
0
0
0
0
0
0
0
0
0
0
0
0
0
0
0
0
0
0
0
0
0
0
0
0
0
0
0
0
0
0
0
0
0
0
0
0
0
0
0
0
0
0
0
0
0
0
0
0
0
0
0
0
0
0
0
0
0
0
0
0
0
0
0
0
0
0
0
0
0
0
0
0
0
0
0
0
0
0
0
0
0
0
0
0
0
0
0
0
0
0
0
0
0
0
0
0
37
3
3
0
0
0
218
24
24
0
0
0
109
12
12
0
0
0
109
12
12
0
0
0
218
25
25
0
0
0
109
12
12
0
0
0
109
13
13
0
0
0
109
12
12
0
0
0
109
12
12
0
0
0
218
24
24
0
0
0
106
8
8
0
0
0
109
12
12
0
0
0
218
24
24
0
0
0
0
0
0
0
0
0
0
0
0
0
0
0
0
0
0
0
0
0
0
0
0
0
0
0
0
0
0
0
0
0
0
0
0
0
0
0
0
0
0
0
0
0
0
0
0
0
0
0
0
0
0
0
0
0
0
0
0
0
0
0
0
0
0
0
0
0
0
0
0
0
0
0
0
0
0
0
0
0
0
0
0
0
0
0
0
0
0
0
0
0
0
0
0
0
0
0
0
0
0
0
0
0
0
0
0
0
0
0
0
0
0
220
25
43
0
0
0
219
25
43
0
0
0
0
0
0
0
0
0
0
0
0
0
0
0
221
24
41
0
0
0
219
25
43
0
0
0
218
23
42
0
0
0
0
0
0
0
0
0
0
0
0
0
0
0
219
25
43
0
0
0
219
25
43
0
0
0
0
0
0
0
0
0
0
0
0
0
0
0
0
0
0
0
0
0
0
0
0
0
0
0
0
0
0
0
0
0
0
0
0
0
0
0
0
0
0
0
0
0
0
0
0
0
0
0
0
0
0
0
0
0
0
0
0
0
0
0
0
0
0
0
0
0
0
0
0
0
0
0
0
0
0
0
0
0
0
0
0
0
0
0
0
0
0
0
0
0
0
0
0
0
0
0
0
0
0
0
0
0
0
0
0
0
0
0
0
0
0
0
0
0
0
0
0
109
12
12
0
0
0
218
24
24
0
0
0
145
14
14
0
0
0
109
12
12
0
0
0
35
3
3
0
0
0
107
16
16
0
0
0
109
12
12
0
0
0
220
24
24
0
0
0
218
24
24
0
0
0
108
12
12
0
0
0
0
0
0
0
0
0
0
0
0
0
0
0
0
0
0
0
0
0
0
0
0
0
0
0
0
0
0
0
0
0
0
0
0
0
0
0
0
0
0
0
0
0
0
0
0
0
0
0
0
0
0
0
0
0
0
0
0
0
0
0
0
0
0
0
0
0
0
0
0
0
0
0
0
0
0
0
0
0
0
0
0
0
0
0
0
0
0
0
0
0
0
0
0
0
0
0
0
0
0
0
0
0
0
0
0
0
0
0
0
0
0
0
0
0
0
0
0
0
0
0
0
0
0
0
0
0
36
4
4
0
0
0
145
16
16
0
0
0
218
24
24
0
0
0
218
24
24
0
0
0
218
24
24
0
0
0
218
25
25
0
0
0
109
12
12
0
0
0
0
0
0
0
0
0
0
0
0
0
0
0
0
0
0
0
0
0
0
0
0
0
0
0
0
0
0
0
0
0
0
0
0
0
0
0
0
0
0
0
0
0
0
0
0
0
0
0
0
0
0
0
0
0
0
0
0
0
0
0
0
0
0
0
0
0
0
0
0
